<svg xmlns="http://www.w3.org/2000/svg" width="159" height="20" viewBox="0 0 159 20">
    <g fill="#1A1A1A" fill-rule="evenodd">
        <path d="M9.125 6.633a2.514 2.514 0 1 1-5.028 0 2.514 2.514 0 0 1 5.028 0M15.91 6.633a2.514 2.514 0 1 1-5.027 0 2.514 2.514 0 0 1 5.028 0M9.125 13.366a2.514 2.514 0 1 1-5.028 0 2.514 2.514 0 0 1 5.028 0M15.91 13.366a2.514 2.514 0 1 1-5.027 0 2.514 2.514 0 0 1 5.028 0"/>
        <path d="M10.003.417C4.717.417.417 4.716.417 10s4.3 9.583 9.586 9.583c5.286 0 9.587-4.299 9.587-9.583S15.29.417 10.003.417m0 19.583C4.487 20 0 15.514 0 10S4.487 0 10.003 0s10.004 4.486 10.004 10-4.488 10-10.004 10M29.483 14.4v-.26c.31-.013.531-.047.667-.102a.504.504 0 0 0 .288-.305c.056-.148.084-.385.084-.71V6.577c0-.326-.028-.563-.084-.71a.504.504 0 0 0-.288-.305c-.136-.055-.358-.089-.667-.102V5.2c.355.026.876.038 1.565.038.308 0 .692-.004 1.15-.012.46-.009.72-.013.783-.013.872 0 1.54.186 2.005.558.465.372.698.867.698 1.485 0 .499-.155.947-.466 1.345-.31.397-.804.702-1.48.913v.026c.488.067.907.177 1.258.33.35.152.621.336.813.552.192.215.33.443.416.682.086.239.128.498.128.777 0 .748-.276 1.355-.829 1.82-.552.466-1.302.699-2.249.699-.07 0-.354-.007-.85-.02a53.302 53.302 0 0 0-1.352-.019c-.701 0-1.23.013-1.59.039zm2.228-1.377c0 .452.06.745.181.879.121.133.382.2.782.2 1.598 0 2.397-.76 2.397-2.278 0-.681-.183-1.2-.548-1.555-.365-.355-.943-.533-1.736-.533h-1.076v3.287zm0-3.509h.863c.363 0 .672-.056.926-.168.255-.112.45-.27.585-.476.136-.205.232-.426.288-.663.056-.236.085-.507.085-.812 0-.651-.142-1.136-.426-1.456-.283-.319-.74-.479-1.37-.479-.388 0-.643.073-.767.22-.123.145-.184.444-.184.897v2.937zm5.587 4.886v-.273c.359 0 .611-.067.757-.2.146-.133.22-.378.22-.733V9.127c0-.401-.073-.693-.217-.875-.143-.182-.397-.273-.76-.273v-.273c.267.026.532.038.795.038.542 0 .986-.059 1.333-.177V9.19c.154-.432.399-.816.735-1.155.336-.338.71-.507 1.123-.507.342 0 .622.099.841.298.22.199.329.44.329.723a.871.871 0 0 1-.2.58.66.66 0 0 1-.532.238.694.694 0 0 1-.482-.18.63.63 0 0 1-.2-.492c0-.283.146-.518.438-.704-.059-.085-.148-.127-.27-.127-.254 0-.497.081-.728.244a1.996 1.996 0 0 0-.57.616 3.654 3.654 0 0 0-.353.793 2.664 2.664 0 0 0-.131.79v2.753c0 .402.112.68.337.834.226.155.566.232 1.02.232v.273a87.14 87.14 0 0 0-1.97-.051c-.226 0-.73.017-1.515.05zm5.7 0v-.273c.359 0 .611-.067.757-.2.146-.133.22-.378.22-.733V9.127c0-.401-.073-.693-.217-.875-.143-.182-.397-.273-.76-.273v-.273c.267.026.532.038.795.038.542 0 .986-.059 1.333-.177v5.627c0 .355.073.6.219.733.146.133.398.2.757.2v.273a45.826 45.826 0 0 0-1.552-.051c-.25 0-.768.017-1.552.05zm.645-9.11a.81.81 0 0 1 .24-.585.779.779 0 0 1 .58-.247c.22 0 .412.082.575.247.163.165.244.36.244.584a.8.8 0 0 1-.244.587.787.787 0 0 1-.576.244.784.784 0 0 1-.578-.244.806.806 0 0 1-.241-.587zm3.11 9.11v-.273c.358 0 .61-.067.756-.2.146-.133.22-.378.22-.733V9.127c0-.401-.073-.693-.216-.875-.144-.182-.398-.273-.76-.273v-.273c.266.026.531.038.794.038.542 0 .986-.059 1.333-.177v1.529c.212-.55.51-.949.891-1.196a2.323 2.323 0 0 1 1.292-.371c.597 0 1.05.162 1.358.488.159.178.272.397.341.657s.103.61.103 1.05v3.47c0 .355.073.6.22.733.145.133.398.2.756.2v.273a46.11 46.11 0 0 0-1.539-.051c-.238 0-.715.017-1.433.05v-.272c.313 0 .532-.067.657-.2s.188-.378.188-.733V9.438c0-.182-.006-.338-.019-.47a2.062 2.062 0 0 0-.081-.402.906.906 0 0 0-.172-.333.812.812 0 0 0-.304-.21 1.18 1.18 0 0 0-.463-.082c-.53 0-.961.226-1.295.679-.334.452-.5 1.015-.5 1.687v2.887c0 .355.062.6.187.733s.347.2.664.2v.273a38.035 38.035 0 0 0-1.44-.051c-.241 0-.754.017-1.539.05zm7.526 1.25c0-.297.154-.582.46-.857.307-.275.69-.518 1.148-.73h-.043a1.833 1.833 0 0 1-.804-.165.766.766 0 0 1-.348-.307.965.965 0 0 1-.131-.517c0-.297.122-.578.366-.844.244-.267.656-.533 1.236-.8-.793-.313-1.19-.93-1.19-1.852 0-.461.106-.848.317-1.161.21-.313.489-.54.835-.679.346-.14.75-.21 1.214-.21.33 0 .632.039.907.115.088-.482.238-.867.45-1.155.23-.287.522-.431.877-.431.212 0 .378.063.497.19s.178.29.178.489a.607.607 0 0 1-.613.621c-.217 0-.373-.066-.47-.2-.095-.133-.166-.339-.212-.618-.125.114-.24.326-.344.634-.067.229-.11.408-.131.54.821.308 1.232.93 1.232 1.865 0 .685-.218 1.199-.654 1.542-.436.342-1.008.513-1.717.513-.355 0-.67-.04-.945-.12a4.634 4.634 0 0 0-.798.517c-.185.159-.278.329-.278.51 0 .288.204.432.613.432h3.01c.446 0 .808.095 1.085.286.278.19.416.497.416.92 0 .236-.044.476-.131.72a2.452 2.452 0 0 1-.42.716 3.075 3.075 0 0 1-.697.622 3.59 3.59 0 0 1-1.014.438 4.922 4.922 0 0 1-1.323.168c-.446 0-.86-.043-1.242-.13a2.59 2.59 0 0 1-.954-.406c-.254-.184-.382-.403-.382-.657zm1.051-.273c0 .279.1.516.298.71.198.195.433.332.707.413.273.08.562.12.866.12a3.041 3.041 0 0 0 1.58-.444c.232-.144.42-.336.563-.577.144-.241.216-.512.216-.812 0-.254-.069-.438-.206-.552-.138-.115-.395-.172-.77-.172H56.2c-.271.14-.484.331-.638.574-.154.244-.232.49-.232.74zm.845-5.8c0 .66.1 1.13.297 1.406.198.277.487.416.867.416.384 0 .675-.138.873-.413.198-.275.297-.744.297-1.408 0-.664-.1-1.134-.297-1.409-.198-.275-.49-.412-.873-.412-.38 0-.669.139-.867.416-.198.277-.297.745-.297 1.405zm7.64-1.598v-.273c.4.055.82.083 1.257.083.367 0 .922-.028 1.665-.083v.273c-.125 0-.22.001-.282.003-.062.002-.14.01-.235.026a.527.527 0 0 0-.206.066.413.413 0 0 0-.172.356c0 .156.054.37.163.64l1.545 3.883 1.414-3.762c.092-.254.138-.453.138-.597 0-.203-.076-.353-.229-.45-.152-.097-.395-.156-.729-.178v-.26c.45.026.81.038 1.077.038.383 0 .709-.012.976-.038v.26a.762.762 0 0 0-.457.235c-.134.135-.259.362-.375.679l-2.103 5.583-.438 1.13c-.162.426-.346.731-.55.913-.242.224-.576.336-1.001.336-.255 0-.463-.069-.626-.206-.163-.138-.244-.329-.244-.574 0-.207.06-.374.181-.498.121-.125.288-.187.5-.187a.69.69 0 0 1 .467.158c.123.106.185.256.185.45a.633.633 0 0 1-.345.584.172.172 0 0 0 .076.013c.47 0 .834-.338 1.088-1.015l.457-1.186-2.328-5.672c-.237-.487-.527-.73-.87-.73zm7.107 3.083c0-.49.05-.932.148-1.326.098-.393.233-.726.406-.999.173-.273.383-.5.629-.682.246-.182.512-.315.798-.4a3.26 3.26 0 0 1 .929-.126c.334 0 .643.042.93.127.285.084.55.217.797.4.246.181.456.408.629.681.173.273.308.606.406 1 .098.393.147.835.147 1.325 0 .605-.074 1.137-.222 1.596-.148.459-.356.827-.625 1.104a2.598 2.598 0 0 1-.92.619 3.095 3.095 0 0 1-1.142.203c-.417 0-.798-.068-1.142-.203a2.598 2.598 0 0 1-.92-.62c-.269-.276-.477-.644-.625-1.103-.148-.459-.223-.99-.223-1.596zm1.246 0c0 1.113.149 1.934.447 2.465.298.531.704.796 1.217.796.513 0 .919-.265 1.217-.796.298-.53.447-1.352.447-2.465 0-1.116-.149-1.941-.447-2.474-.298-.533-.704-.8-1.217-.8-.513 0-.919.267-1.217.8-.298.533-.447 1.358-.447 2.474zm5.38-3.083v-.273c.267.026.532.038.795.038.538 0 .982-.059 1.333-.177v5.107c0 .194.004.352.012.473.009.12.03.252.066.396a.835.835 0 0 0 .153.336.77.77 0 0 0 .285.203c.123.055.274.083.454.083.496 0 .909-.225 1.238-.676.33-.45.495-1.01.495-1.678V9.127c0-.401-.072-.693-.216-.875-.144-.182-.397-.273-.76-.273v-.273c.267.026.532.038.794.038.543 0 .987-.059 1.333-.177v5.43c0 .402.072.693.216.873.144.18.397.27.76.27v.272a8.527 8.527 0 0 0-.795-.038c-.55 0-.994.061-1.332.184v-1.535c-.209.533-.5.926-.873 1.18a2.14 2.14 0 0 1-1.23.38c-.575 0-1.02-.164-1.332-.494-.284-.31-.426-.876-.426-1.7V9.126c0-.401-.07-.693-.212-.875-.142-.182-.395-.273-.758-.273zm7.609 6.42v-.272c.359 0 .61-.067.757-.2.146-.133.219-.378.219-.733V9.127c0-.401-.072-.693-.216-.875-.144-.182-.397-.273-.76-.273v-.273c.267.026.532.038.794.038.543 0 .987-.059 1.333-.177V9.19c.154-.432.4-.816.735-1.155.336-.338.71-.507 1.123-.507.342 0 .623.099.842.298.219.199.328.44.328.723a.871.871 0 0 1-.2.58.66.66 0 0 1-.532.238.694.694 0 0 1-.481-.18.63.63 0 0 1-.2-.492c0-.283.145-.518.437-.704-.058-.085-.148-.127-.269-.127-.254 0-.497.081-.729.244a1.996 1.996 0 0 0-.569.616 3.654 3.654 0 0 0-.353.793 2.664 2.664 0 0 0-.132.79v2.753c0 .402.113.68.338.834.225.155.565.232 1.02.232v.273a87.14 87.14 0 0 0-1.971-.051c-.225 0-.73.017-1.514.05zm8.89 0v-.272c.36 0 .612-.067.758-.2.146-.133.219-.378.219-.733V9.127c0-.401-.072-.693-.216-.875-.144-.182-.397-.273-.76-.273v-.273c.267.026.532.038.794.038.543 0 .987-.059 1.333-.177v5.627c0 .355.073.6.22.733.145.133.397.2.756.2v.273a45.826 45.826 0 0 0-1.552-.051c-.25 0-.767.017-1.551.05zm.645-9.11a.81.81 0 0 1 .241-.584.779.779 0 0 1 .579-.247c.22 0 .413.082.575.247.163.165.245.36.245.584a.8.8 0 0 1-.245.587.787.787 0 0 1-.575.244.784.784 0 0 1-.579-.244.806.806 0 0 1-.24-.587zm3.354 5.773v-.044c0-.558.075-1.06.225-1.504.159-.456.373-.826.645-1.11.27-.283.578-.5.922-.65.345-.15.713-.225 1.105-.225.717 0 1.23.256 1.539.767V5.771c0-.402-.072-.692-.216-.872-.144-.18-.397-.27-.76-.27v-.273c.271.026.536.039.795.039.55 0 .994-.062 1.332-.184v8.774c0 .402.072.692.216.872.144.18.397.27.76.27v.273a8.527 8.527 0 0 0-.794-.039c-.55 0-.995.062-1.333.184v-1.154c-.321.795-.928 1.193-1.82 1.193-.822 0-1.465-.299-1.928-.895-.463-.596-.692-1.472-.688-2.627zm1.245-.038v.083c-.004 1.02.14 1.787.432 2.303.292.524.728.784 1.307.78.334 0 .635-.13.905-.393.269-.262.451-.63.547-1.104V8.829c-.238-.668-.715-1.002-1.433-1.002-.525 0-.95.275-1.276.825-.321.54-.482 1.332-.482 2.372zm6.175.19c0-1.137.262-2.036.786-2.696.523-.66 1.227-.99 2.111-.99.768 0 1.36.236 1.774.708.415.472.623 1.187.623 2.148h-4.005c-.029.232-.043.51-.043.83 0 .85.196 1.534.588 2.05.392.516.849.774 1.37.774.86 0 1.487-.434 1.883-1.3l.257.1a2.59 2.59 0 0 1-.867 1.232c-.423.342-.933.514-1.53.514-.913 0-1.633-.31-2.158-.927-.526-.617-.789-1.431-.789-2.442zm1.27-1.078h2.791c.004-.072.006-.142.006-.21 0-.579-.096-1.071-.287-1.477-.213-.449-.524-.673-.933-.673-.404 0-.752.198-1.041.593-.29.396-.469.985-.535 1.767zm5.125 2.9c0-.25.044-.472.131-.667a1.47 1.47 0 0 1 .429-.533c.198-.16.409-.3.632-.421.223-.121.514-.257.873-.41.054-.025.145-.063.272-.114.127-.05.217-.088.269-.11l.235-.106a1.98 1.98 0 0 0 .222-.11c.043-.028.102-.064.175-.108a.682.682 0 0 0 .156-.121c.032-.036.066-.078.104-.127a.447.447 0 0 0 .078-.149.57.57 0 0 0 .022-.159v-.805c0-.504-.104-.847-.31-1.031-.207-.184-.5-.276-.88-.276-.604 0-1.027.154-1.27.463a.795.795 0 0 1 .6.793c.001.22-.066.392-.202.517s-.318.187-.547.187a.627.627 0 0 1-.51-.222c-.123-.148-.185-.343-.185-.584 0-.338.2-.647.6-.926.493-.326 1.091-.488 1.796-.488.714 0 1.23.162 1.552.488.196.203.33.439.404.708.073.268.11.64.11 1.113v3.61c0 .216.03.372.09.47.06.097.162.145.303.145.176 0 .367-.09.576-.273l.144.223c-.15.114-.267.198-.35.253a1.418 1.418 0 0 1-.345.153c-.146.046-.304.07-.475.07-.413 0-.7-.105-.86-.315-.161-.21-.241-.49-.241-.84-.25.418-.55.716-.901.891-.35.176-.707.263-1.07.263-.463 0-.85-.122-1.16-.368-.312-.245-.467-.607-.467-1.084zm1.126-.21c0 .377.094.661.282.853.187.193.436.29.744.29.568 0 1.05-.329 1.446-.984v-2.55a.896.896 0 0 1-.313.272c-.146.085-.45.241-.914.47-.179.088-.326.169-.44.24a2.676 2.676 0 0 0-.382.302c-.14.13-.246.287-.316.473-.071.186-.107.397-.107.634zm5.462 1.662c.034-.495.05-1.36.05-2.594h.295c.037.313.08.583.128.812.048.228.116.45.203.666.088.215.194.389.32.52.124.131.282.236.472.314.19.078.41.117.66.117.3 0 .565-.1.794-.301.23-.2.345-.513.345-.936 0-.148-.027-.288-.079-.422a1.532 1.532 0 0 0-.184-.345 1.873 1.873 0 0 0-.323-.324 5.506 5.506 0 0 0-.387-.295 21.476 21.476 0 0 0-.48-.314 32.56 32.56 0 0 1-.309-.2 30.956 30.956 0 0 1-.281-.19 4.004 4.004 0 0 1-.523-.41 1.409 1.409 0 0 1-.225-.228l-.169-.238c-.07-.1-.12-.192-.147-.279a3.152 3.152 0 0 1-.075-.295 1.674 1.674 0 0 1-.035-.342c0-.55.18-.967.542-1.25.36-.284.812-.425 1.354-.425.543 0 1.008.158 1.396.475.091.072.166.108.225.108.15 0 .246-.19.288-.57h.294c-.034.422-.05 1.158-.05 2.207h-.294c-.213-1.315-.795-1.973-1.746-1.973-.309 0-.561.088-.757.263-.196.176-.294.42-.294.733 0 .11.013.213.04.308a.877.877 0 0 0 .138.276 1.754 1.754 0 0 0 .457.466c.119.087.217.157.294.21.077.052.195.128.353.228a20.453 20.453 0 0 1 .923.612c.144.102.3.228.47.38.169.153.299.298.39.435.092.138.17.3.235.486.065.186.097.382.097.59 0 .385-.103.718-.31.999a1.832 1.832 0 0 1-.797.622c-.326.133-.686.2-1.083.2a2.63 2.63 0 0 1-1.013-.184 3.039 3.039 0 0 1-.526-.35.161.161 0 0 0-.119-.05c-.125 0-.212.163-.262.488h-.295zm8.247-6.509v-.26h1.233V5.733c.48-.013.863-.074 1.15-.184v2.17h1.897v.26h-1.896v5.031c0 .393.069.676.206.847.138.171.342.257.613.257a.873.873 0 0 0 .682-.324c.188-.215.347-.57.476-1.065l.25.063c-.208 1.197-.763 1.796-1.664 1.796-.526 0-.93-.144-1.214-.432a1.588 1.588 0 0 1-.388-.7c-.075-.278-.112-.651-.112-1.12V7.978h-1.233zm5.087 3.083c0-.49.049-.932.147-1.326.098-.393.233-.726.406-.999a2.554 2.554 0 0 1 1.427-1.082 3.26 3.26 0 0 1 .93-.126c.333 0 .643.042.928.127.286.084.552.217.798.4.246.181.456.408.629.681.173.273.309.606.407 1 .098.393.147.835.147 1.325 0 .605-.074 1.137-.223 1.596-.148.459-.356.827-.625 1.104a2.598 2.598 0 0 1-.92.619 3.095 3.095 0 0 1-1.142.203c-.417 0-.798-.068-1.142-.203a2.598 2.598 0 0 1-.92-.62c-.268-.276-.477-.644-.625-1.103-.148-.459-.222-.99-.222-1.596zm1.245 0c0 1.113.149 1.934.447 2.465.298.531.704.796 1.217.796.513 0 .919-.265 1.217-.796.298-.53.448-1.352.448-2.465 0-1.116-.15-1.941-.448-2.474-.298-.533-.704-.8-1.217-.8-.513 0-.919.267-1.217.8-.298.533-.447 1.358-.447 2.474zm8.647 3.338v-.273c.359 0 .61-.067.757-.2.146-.133.219-.378.219-.733V5.771c0-.402-.072-.692-.216-.872-.144-.18-.397-.27-.76-.27v-.273c.267.026.532.039.794.039.551 0 .995-.062 1.333-.184v8.983c0 .355.073.6.22.733.145.133.397.2.756.2v.273a45.826 45.826 0 0 0-1.551-.051c-.25 0-.768.017-1.552.05zm3.754 0v-.273c.359 0 .611-.067.757-.2.146-.133.219-.378.219-.733V9.127c0-.401-.072-.693-.216-.875-.144-.182-.397-.273-.76-.273v-.273c.267.026.532.038.795.038.542 0 .986-.059 1.332-.177v5.627c0 .355.073.6.22.733.145.133.398.2.756.2v.273a45.826 45.826 0 0 0-1.551-.051c-.25 0-.768.017-1.552.05zm.644-9.11a.81.81 0 0 1 .241-.585.779.779 0 0 1 .579-.247c.221 0 .413.082.576.247.162.165.244.36.244.584a.8.8 0 0 1-.244.587.787.787 0 0 1-.576.244.784.784 0 0 1-.579-.244.806.806 0 0 1-.24-.587zm3.072 2.69v-.261h1.027c0-.761.048-1.35.144-1.767.095-.417.266-.77.513-1.063.166-.203.383-.362.65-.479.267-.116.557-.174.87-.174.438 0 .81.118 1.114.355.267.22.4.489.4.806a.671.671 0 0 1-.19.492.66.66 0 0 1-.492.193.7.7 0 0 1-.497-.19.662.662 0 0 1-.204-.508.66.66 0 0 1 .147-.44.673.673 0 0 1 .391-.226c-.025-.08-.093-.148-.206-.203a.968.968 0 0 0-.425-.082c-.38 0-.657.16-.833.482-.096.173-.158.432-.187.777-.03.345-.044.908-.044 1.69v.337h1.376v.26h-1.376v5.082c0 .402.112.68.338.834.225.155.565.232 1.02.232v.273a87.14 87.14 0 0 0-1.971-.051c-.209 0-.714.017-1.514.05v-.272c.358 0 .61-.067.757-.2.146-.133.219-.378.219-.733V7.98h-1.027zm4.512 3.235c0-1.138.261-2.037.785-2.697.523-.66 1.227-.99 2.112-.99.767 0 1.358.236 1.773.708.415.472.623 1.187.623 2.148h-4.004c-.03.232-.044.51-.044.83 0 .85.196 1.534.588 2.05.392.516.849.774 1.37.774.86 0 1.487-.434 1.883-1.3l.257.1a2.59 2.59 0 0 1-.867 1.232c-.423.342-.933.514-1.53.514-.913 0-1.632-.31-2.158-.927s-.788-1.431-.788-2.442zm1.27-1.079h2.79c.005-.072.007-.142.007-.21 0-.579-.096-1.071-.288-1.477-.213-.449-.524-.673-.932-.673-.405 0-.752.198-1.042.593-.29.396-.468.985-.535 1.767z"/>
        <ellipse cx="44.225" cy="5.263" rx="1.053" ry="1.053"/>
        <ellipse cx="95.768" cy="5.263" rx="1.053" ry="1.053"/>
        <ellipse cx="146.364" cy="5.263" rx="1.053" ry="1.053"/>
    </g>
</svg>
