<svg xmlns="http://www.w3.org/2000/svg" width="64" height="90" viewBox="0 0 64 90">
    <g fill="none" fill-rule="nonzero">
        <path fill="#F6F4F4" d="M20.653 65.237c-10.092 5.098-14.462-9.676-15.71-17.168-.105.208-.105.52-.313.625-8.064 4.63-2.393 12.59-2.08 18.104.26 4.942.311 9.312 1.3 14.202 1.092 5.306 5.93 6.659 5.982 7.127 0 0 5.67 1.665 5.67 1.717.625.312 7.336-1.977 8.22-1.977 3.902 0 7.856-1.509 7.284-3.798-.729-1.664-1.769-2.653-3.33-3.433-.052.104-1.196.208-1.352.208-3.226-.052-10.04.988-9.573.78 2.758-1.04 5.567-1.56 8.532-1.664-.936-.469-1.82-1.04-2.497-1.821-1.873-2.185-1.613-4.89-1.977-7.648-.052-1.508-.052-3.745-.156-5.254zM53.792 67.266c-2.965 1.613-9.104 2.653-12.278.468-.364 2.913-.78 5.827-1.196 8.688-.26 1.82-.728 3.798-.989 5.723.313-.313.677-.52 1.145-.729 1.092-.468 3.07-.936 4.162-.936 1.873 0 3.798.832 5.722.832 2.81.052 5.567-.676 8.116-1.873.468-.208-4.786 2.653-7.595 2.706-1.51.052-3.226-.989-4.734-1.197-1.665-.26-6.295.364-6.763 2.965-.053.156-.105.26-.209.26v1.145c.209 3.902 1.405 3.954 4.11 3.59 1.3-.157 5.515-.313 6.815-.469 2.03-.26 4.37-.572 6.347-1.248 2.861-.937 4.266-2.393 5.306-5.41 1.093-3.226.989-7.44-.156-10.457-1.3-3.382-2.393-6.607-3.173-9.937-.624 2.445-2.341 4.63-4.63 5.879z"/>
        <path fill="#000" d="M58.63 58.838a10.417 10.417 0 0 0-.208-1.248c-.572-3.642-.884-7.388-1.197-11.081-.364-4.058-.624-8.168-.312-12.278.26-3.485 1.405-6.815 2.393-10.144.937-3.226 1.457-6.555 2.341-9.833.937-3.33 1.821-6.659 2.185-10.092.052-.52-.26-.468-.312.104-.624 5.774-2.6 11.705-3.954 17.324-1.196 4.89-3.381 9.208-3.537 14.306-.208 6.295 1.092 12.798 1.82 19.04.053.573.469 4.943.573 5.515-.156.104-1.613 4.63-5.046 6.555-2.705 1.508-8.948 2.029-11.653-.26.728-6.087.728-11.393 1.144-17.532.884-14.359.936-29.445 0-43.752-.052-.52-.416-.676-.416-.156 0 .312.052.625.052.885-.156 0-.208.884-.312 1.04-3.746 7.544-9.104 16.075-13.266 23.41-3.59 6.295-5.41 10.093-7.18 17.116-.78 3.018-1.456 6.347-1.352 9.468.104 3.694-.052 6.763-.364 7.388-.052 0-.104 0-.156.052-10.04 5.306-13.37-9.156-14.359-17.272 1.717-1.405 2.914-2.861 4.162-5.983 2.497-6.138 4.266-16.23 5.203-22.734.884-5.826 1.976-12.433 4.057-18 .209-.52-.104-.52-.312 0-2.289 6.139-3.017 12.486-4.058 18.885-1.3 8.167-2.445 15.919-6.242 23.254-.625 1.197-.937 1.717-3.694 4.734C.676 51.815 0 52.075 0 55.613c0 5.41 2.601 11.237 2.861 16.647.208 3.954.156 8.376 2.237 11.913 1.925 3.33 7.596 5.827 10.457 5.775 2.861-.052 6.139-1.249 9-1.82 2.393-.469 8.896-1.562 6.347-5.463l-.156-.156c-1.197-1.717-3.174-2.341-5.047-3.382-3.953-2.237-4.057-6.607-4.526-10.665-.416-4.005-.78-8.011-.364-12.017.364-3.381 1.249-6.763 2.133-10.04C26.688 32.15 35.896 20.497 42.502 7.49a333.28 333.28 0 0 1-.051 41.41c-.364 5.827-.937 11.654-1.613 17.48-.208.157-.312.417-.104.677-.156 1.092-.26 2.185-.416 3.225-.52 3.954-1.197 7.908-1.769 11.862-.26 1.768-.572 3.745.208 5.462.677 1.457 1.873 1.925 3.434 1.977 2.965.052 6.347-.833 9.312-1.249 3.954-.572 6.815-.52 9.26-4.006 3.382-4.838 1.925-10.872 0-15.606-1.145-2.914-1.613-6.763-2.133-9.885zM22.89 78.087c.676.78 1.56 1.352 2.497 1.82-2.913.105-5.722.625-8.532 1.665-.52.208 6.347-.832 9.573-.78.156 0 .26-.052.312-.156 2.133.364 3.59 1.717 4.318 3.381.78 2.81-6.243 3.798-8.324 3.694-.884-.052-6.035 3.121-9.156 1.457-5.046-.989-8.584-3.486-9.676-8.792-.989-4.89.468-9.573-2.081-17.22-1.717-5.202-2.705-9.052 1.3-13.058.26-.26 1.717-1.508 1.821-1.716 1.249 7.543 5.515 22.11 15.607 17.063.104 1.509.208 3.226.364 4.734.312 2.653.104 5.723 1.977 7.908zm38.861 3.277c-1.04 3.018-2.133 4.63-5.046 5.567-1.977.624-4.734.52-6.763.78-1.3.208-2.653.364-3.954.52-2.705.364-7.283 2.185-6.867-2.913.052-.364 0-.78 0-1.145.104-.052.208-.104.208-.26.469-2.549 5.099-2.913 6.763-2.653 1.51.208 3.174.937 4.735.937 2.809-.052 8.115-2.966 7.595-2.706-2.55 1.197-5.254 1.925-8.116 1.873-1.924-.052-3.85-.832-5.722-.832-1.145 0-3.122.52-4.162.936-.468.208-.832.416-1.145.729.26-1.925.729-3.85.989-5.723.416-2.913.832-5.775 1.196-8.688 3.174 2.185 9.313 1.145 12.278-.468 2.289-1.249 4.006-3.434 4.578-5.827.78 3.33 1.873 7.648 3.173 11.03 1.249 2.965 1.353 5.618.26 8.843z"/>
        <path fill="#000" d="M9.884 45.988c-.676 1.353-1.612 2.498-1.456 4.058.104 1.249.728 2.29 1.664 3.07.209.156.52-.104.313-.313-.937-.78-1.561-1.924-1.561-3.173 0-1.353.832-2.341 1.405-3.485.104-.157-.26-.417-.365-.157zM55.925 55.353c.104.156.156.26.26.416.052.104.26.156.312.052 1.769-2.133.572-4.578.624-4.318.104.78.208 1.509 0 2.393-.104.468-.728 1.405-1.248 1.405l.052.052z"/>
    </g>
</svg>
