<svg xmlns="http://www.w3.org/2000/svg" width="83" height="89" viewBox="0 0 83 89">
    <g fill="none" fill-rule="nonzero">
        <path fill="#F6F4F4" d="M20.9 82.816c4.517-2.31 9.243-3.991 14.022-5.777-3.518-3.308-8.612-6.932-10.083-8.14-4.726-3.833-8.14-8.507-8.402-14.599-.052-1.208 0-2.415.105-3.623-3.623 1.47-7.982 1.365-11.658.105-.263 0 .157.892.21 1.05.473 1.733 1.26 3.15 1.05 4.936-.157 1.786-1.785 3.204-2.205 4.884-.736 2.994 1.943 5.042 3.15 7.51.736 1.47.63 3.203.946 4.831.735 3.624 1.208 8.508 3.938 11.396 3.099 3.308 8.56 2.888 12.709 2.678 4.411-.262 8.297-1.365 12.026-3.728.105-.053 1.05-.998 1.155-.946 1.418-1.68-.578-4.148-2.573-6.196-5.042 1.733-14.862 5.881-14.39 5.619zM79.297 43.955v-.263c-3.36 2.836-7.877 2.731-12.078 2.206-.105 5.041-3.466 9.978-6.302 14.074-2.678 3.886-6.984 6.302-10.765 9.032-2.469 1.786-3.992 3.781-5.725 6.407-1.26 1.943-2.888 3.834-2.205 6.092.683 2.153 1.89 1.365 3.886 1.838.893.21 1.838.367 2.73.525 3.94.735 8.088 2.73 12.027 1.943 3.78-.735 6.616-4.464 9.085-7.142 2.73-2.993 5.724-5.304 8.454-8.35 2.101-2.363 3.151-4.989 3.466-8.035.263-3.15-1.05-5.986-1.575-9.085-.578-2.993-.84-6.091-.998-9.242zM48.524 76.882c-.526-.158-.315-.998.21-.84 4.41 1.522 9.82 4.463 14.599 3.57.525-.105-10.136-1.103-14.81-2.73z"/>
        <path fill="#000" d="M75.674.42c-.21-.525-.63-.157-.42.368 6.249 13.338 4.41 27.833 3.99 41.906a.398.398 0 0 0-.21.105c-1.417 2.731-6.669 3.992-11.868 2.259v-.105c-.262-6.355-3.78-12.026-6.196-17.803-2.574-6.197-5.62-12.971-7.563-19.43-.157-.525-.525-.473-.367.052 1.943 6.46 4.779 12.604 7.352 18.853 2.31 5.567 5.619 12.078 5.882 18.328-.368.052-.368.63 0 .787v.788c-.368 7.09-5.304 14.126-10.766 18.275-3.991 3.046-8.717 5.62-11.658 9.82-1.208 1.786-2.783 4.727-1.838 6.985.945 2.153 3.57 2.468 5.619 2.888 6.302 1.155 13.444 3.624 18.905-1.05 2.836-2.468 5.252-5.514 7.825-8.297 2.31-2.521 5.671-5.147 7.037-8.35 2.1-4.884.315-9.978-.473-14.862-2.73-17.225 2.416-35.08-5.251-51.517zm6.196 61.915c-.262 3.046-.735 4.831-2.888 7.194-2.73 2.994-6.25 6.197-8.98 9.19-2.468 2.679-4.989 6.145-8.77 6.88-3.991.788-8.402-.945-12.34-1.628-.894-.158-1.839-.263-2.732-.525-1.995-.525-3.203 0-3.886-2.153-.735-2.258.893-3.834 2.206-5.83 1.68-2.625 3.203-4.568 5.724-6.406 3.781-2.73 8.77-5.987 11.5-9.873 2.784-4.096 5.462-8.14 5.567-13.234 4.202.473 8.718.63 12.079-2.205v.262c.157 3.099.42 6.197.998 9.295.472 2.994 1.785 5.882 1.522 9.033zM35.815 76.724h-.052a19.023 19.023 0 0 0-2.049-1.786c-6.039-4.62-13.128-7.93-15.596-15.754-2.574-8.14.997-16.805 3.518-24.524a3398.158 3398.158 0 0 0 8.297-24.682c.158-.525-.21-.788-.367-.263-2.573 7.72-5.462 15.912-8.035 23.632-1.838 5.461-3.886 10.45-4.569 16.28-.105-.053-.525.21-.63.314-4.464 2.574-7.51 1.523-11.238.158-1.208-3.834-3.361-6.722-3.939-10.765-1.365-9.768.788-20.481 3.046-29.829.105-.525 0-.525-.157 0C1.68 19.325-.788 29.618.945 39.754c.893 5.146 3.939 9.977 4.306 15.229.21 2.993-1.575 5.094-1.733 7.93-.105 1.47.473 2.783 1.208 4.043 1.156 2.1 2.258 4.044 2.784 6.407.472 2.1.682 4.254 1.155 6.354.788 3.256 2.258 6.092 5.409 7.562 3.413 1.576 7.825 1.366 11.5 1.05 4.044-.314 11.449-3.518 11.606-3.623 2.679-2.1 1.103-5.094-.945-7.352.21-.315 0-.735-.42-.63zm1.943 6.774c-.105-.052-1.313.788-1.418.84-3.728 2.364-6.932 3.414-11.396 3.624-4.148.21-9.767.788-12.918-2.468-2.678-2.836-2.783-6.407-3.519-10.03-.315-1.628-.735-4.78-1.418-6.25-1.207-2.468-3.623-4.516-2.888-7.51.42-1.732 1.733-3.098 1.943-4.883.158-1.786-.577-3.519-1.05-5.252a16.34 16.34 0 0 1-.21-.787c3.676 1.208 8.035 1.365 11.658-.105-.105 1.208-.157 2.415-.105 3.623.263 6.144 3.834 10.87 8.56 14.704 1.47 1.208 6.46 4.78 9.925 8.088-4.726 1.785-10.555 2.993-14.021 5.776-.42.368 9.4-4.516 14.704-5.094 1.996 2.048 3.571 4.096 2.153 5.724z"/>
        <path fill="#000" d="M63.333 79.612c-3.991-.997-9.243-1.47-14.6-3.57-.524-.21-.735.63-.21.84 4.674 1.627 15.335 2.888 14.81 2.73zM7.09 56.453c.157 1.628-.106 4.517 1.627 5.41.263.157.473-.263.21-.368-1.522-.788-1.89-5.304-1.838-5.042zM77.46 58.344c1.155-1.155 1.732-2.73 1.522-4.411-.052-.263-.052 3.045-1.838 4.096-.21.157.105.525.315.315z"/>
    </g>
</svg>
