<svg xmlns="http://www.w3.org/2000/svg" width="67" height="90" viewBox="0 0 67 90">
    <g fill="none" fill-rule="nonzero">
        <path fill="#F6F4F4" d="M25.153 33.868c.994 5.069 1.042 11.227.758 16.39-.237 4.69.331 10.42-1.564 14.826-1.279 2.984-4.642 5.4-7.91 3.837-2.18-1.042-4.216-3.458-4.926-5.968-.38 1.8-1.28 3.79-1.09 5.542.284 2.7 2.416 5.542 4.216 7.531.758.853 1.942 1.942 2.842 2.748.237.19.095-.616.379-.38a7.537 7.537 0 0 1-1.232-2.983c-.094-.474 2.321 4.594 2.369 4.642.994.71 4.5.805 4.879-1.469.142-1.042 1.137-2.937 1.468-3.931a99.888 99.888 0 0 0 1.042-4.027c1.184-5.542.332-10.42.427-16.01.047-2.274.994-4.263 1.705-6.442.758-2.321 1.658-5.353 1.468-7.863-.284-2.7-3.173-4.643-4.831-6.443zM59.637 78.11c-2.842 2.369-5.826 1.658-8.574-.473-6.442-4.974-12.647-12.08-14.92-20.084-.948 1.61-2.275 2.605-2.275 4.69.048 2.13.285 5.304 1.706 7.01 1.515 1.8 4.642 2.89 6.584 4.12 3.884 2.464 5.258 7.248 8.242 10.516 1.847 1.99 4.926 3.98 7.39 5.164 2.936 1.42 5.778-.474 6.82-2.842-.236-.048-.947-3.127-.757-1.611.19-.284 1.042.19 1.184.474.995-2.18 1.752-4.832 1.137-7.39-.569-2.463-2.795-4.547-4.548-6.49.9 2.511.19 5.117-1.99 6.917z"/>
        <path fill="#000" d="M21.316 18.332c-1.563-6.253-3.98-12.221-7.01-17.906-.238-.426-.57-.284-.332.142 2.558 4.785 4.831 10.327 6.394 15.585 1.327 4.594 1.232 9.142 2.606 13.69.426 1.325.947 2.652 1.752 3.789v.142c1.8 7.294.521 15.158.142 22.594-.19 3.553.237 8.621-2.605 11.274-2.274 2.132-5.59 1.374-7.72-.663-1.611-1.563-3.411-3.979-3.08-6.347.095-.521.332-1.374.426-1.895 1.043-4.974 3.08-11.037 3.174-16.2.095-5.495-3.363-9.048-5.731-13.784-2.843-5.685-5.637-11.51-8.48-17.195-.236-.426-.568-.142-.33.284l8.525 17.053c1.421 2.89 3.032 5.684 4.216 8.668 1.469 3.648 1.326 7.105.569 10.895-1.137 5.779-2.985 11.653-3.506 17.526-.426 4.642 2.274 8.148 5.4 11.274 1.99 1.99 5.685 5.21 8.1 1.942 1.421-1.942 1.942-4.879 2.463-7.2a45.416 45.416 0 0 0 1.232-8.337c.19-2.747 0-5.495 0-8.29 0-3.315.758-6.11 1.8-9.236 1.468-4.31 1.468-7.437-1.895-10.705-4.69-4.5-4.594-11.037-6.11-17.1zm6.916 30.079c-.71 2.178-1.421 3.931-1.469 6.205-.095 5.59.758 10.184-.426 15.726-.284 1.184-.853 3.08-1.184 4.263-.285.995-1.516 4.121-2.132 4.974-1.279 1.8-3.742.19-3.79.19-1.089-1.09-2.747-4.88-2.652-4.406.19 1.09.758 2.558 1.374 3.458-.285-.237-2.89-2.463-3.695-3.316-1.753-1.99-3.221-4.5-3.505-7.2-.19-1.752.379-3.6.758-5.352.71 2.51 2.794 4.926 4.926 5.968 3.268 1.61 6.631-.805 7.91-3.837 1.895-4.405 1.327-10.137 1.564-14.826.284-5.163.473-10.895-.522-15.963 1.658 1.8 4.311 3.505 4.548 6.158.237 2.51-.948 5.636-1.705 7.958zM57.695 64.705c-2.748-3.647-6.3-6.916-6.584-11.747-.19-3.647.473-7.39.947-10.99.71-5.447 1.468-10.942 2.32-16.39 1.659-10.373 2.085-13.83 4.311-24.11.143-.568-.236-1.042-.378-.473-2.18 10.09-2.748 14.826-4.358 25.01-1.327 8.48-3.032 17.242-3.742 24.442-.758 7.437 2.7 8.527 7.01 14.116.426.569 2.984 5.021 3.505 5.59-.237.094 3.032 4.642-1.658 7.815-2.415 1.658-5.115 1.658-7.2 0-2.131-1.657-4.69-4.026-6.49-5.968-3.883-4.216-7.152-9.9-8.525-15.49.758-1.231 1.515-2.51 1.894-4.026 2.085-8.242-.473-16.72-1.184-25.01-1.042-11.937-.9-15.158-1.231-27.095 0-.568-.38.853-.38 1.421.332 10.99.285 10.895 1.09 21.884.616 8.432 2.226 17.195 1.28 25.627-.19 1.752-.522 3.647-1.327 5.257-.19.332-.38.616-.569.948-.284-.095-.615.71-.568.805-.569.758-1.184 1.516-1.563 2.416-1.232 2.747-.948 6.016.047 8.81 1.042 2.89 3.458 4.31 6.016 5.78 4.358 2.557 6.253 6.347 9.426 9.994 2.274 2.605 6.68 6.347 10.327 6.442 1.515.048 2.605-.237 3.315-1.326.19.095.474-.332.616-.569 2.842-5.068 4.026-9.663.284-14.636-2.179-2.937-4.5-5.685-6.631-8.527zm7.247 20.274c-.142-.284-.616-.426-3.363-3.553-.332-.379 3.221 4.358 2.747 4.453-.805 2.558-3.22 4.642-5.873 3.363-2.464-1.184-5.969-3.174-7.816-5.163-2.984-3.268-4.548-8.242-8.432-10.705-1.942-1.232-4.784-2.132-6.3-3.885-1.42-1.657-2.084-5.068-2.131-7.2 0-2.084 1.42-3.078 2.368-4.689 2.274 8.005 8.48 15.11 14.921 20.084 2.748 2.132 5.732 2.842 8.574.474 2.179-1.8 2.842-4.405 1.99-6.963 1.705 1.99 3.836 4.026 4.452 6.49.568 2.51-.142 5.068-1.137 7.294z"/>
        <path fill="#000" d="M41.637 54c-.758 2.084-.948 4.453 1.468 5.495.284.094.521-.284.237-.38-2.179-.947-1.942-3.078-1.231-4.973.047-.284-.38-.426-.474-.142zM23.258 42.253c1.137-2.132.568-4.406-.095-6.585-.095-.284-.52-.142-.426.143.616 2.036 1.184 4.263.142 6.252-.142.237.284.474.379.19z"/>
    </g>
</svg>
