<svg xmlns="http://www.w3.org/2000/svg" width="86" height="90" viewBox="0 0 86 90">
    <g fill="none" fill-rule="nonzero">
        <path fill="#F6F4F4" d="M72.052 48.776c-.724-4.448-1.138-11.845-1.5-17.742-4.655 1.966-10.604 2.432-15.724 1.81 1.034 4.45 2.482 9.156 2.844 13.708.466 5.482-1.396 11.586.621 16.914 1.138 3.051 3.104 4.862 4.5 7.81.776 1.603 1.5 4.034 2.173 5.69.724 1.758 1.5 3.775 2.74 5.224.932 1.086 2.69 2.638 3.777 3.62 1.448 1.293 2.741 2.949 4.655 3.57 1.552.465 2.586-.466 3.724-1.552-.155-.104.207-.57.259-.776.569-1.707-1.345-4.242-1.087-3.776 1.035 1.758 1.707 2.017 1.397 3.672 2.172-2.638 4.397-7.603 4.603-10.034.621-8.12-1.758-7.293-4.137-11.017-3.725-5.897-7.81-10.656-8.845-17.121zM24.259 31.345c.879 5.793 1.396 11.896 1.396 17.793 0 3.155 1.086 7.552-.465 10.448-.88 1.655-3.518 2.38-4.914 3.414-2.12 1.552-3.724 3.103-5.586 5.017-1.293 1.345-2.07 3.104-3.673 4.035-1.603.93-3.414 1.5-5.172 2.017.88.31 1.758.569 2.638.88.465.154-1.5-.156-2.69-.518-.103-.052-1.241.103-1.293 0-.207.052-1.034-.052-1.241 0-1.5.414-3.207 1.914-2.431 3.828.517 1.241 2.327 2.43 3.465 2.638 1.552.258 4.397.051 5.948.206 6 .621 9.414-4.706 15.31-4.81 3.777-.052 8.173 1.81 11.897.517 5.276-1.862 5.276-7.5 4.242-12.31-.776-3.776-1.656-7.759-1.81-11.638-.156-4.396.154-8.948.62-13.345.31-3 .569-6.362.931-9.31-5.431 1.345-11.586 2.017-17.172 1.138z"/>
        <path fill="#000" d="M43.293 3.62c0 5.587 0 11.69-.62 17.225-.31 3.052-.725 6.517-1.449 8.638-5.069 2.12-11.327 2.845-17.224 1.241-1.552-9.93-2.897-19.914-3.776-29.948-.052-.517-.207-.414-.155.155a443.192 443.192 0 0 0 3.62 29.845c-.155.207-.155.569.104.672.828 5.328 1.448 10.707 1.5 16.138.052 3.776.88 10.19-2.017 12.931-1.966 1.862-4.397 3.207-6.466 4.966-1.913 1.603-3.413 3.776-5.379 5.276-2.38 1.758-5.328 2.327-8.12 3.103-4.5 1.293-3.466 6.466.827 7.086 1.5.207 3 0 4.5.155 1.448.156 2.845.31 4.293 0 3.103-.62 5.69-2.534 8.69-3.413 5.948-1.81 14.482 2.793 19.086-3.104 1.914-2.43 1.862-5.69 1.396-8.69-.724-4.655-1.965-9.051-2.069-13.862-.206-9.517 1.397-19.19 2.535-28.603.828-6.569.88-13.138.88-19.759.154-.62-.156-.62-.156-.051zm-2.948 36.725c-.466 4.396-.724 9.983-.62 14.43.103 3.932 1.189 5.742 1.965 9.518.982 4.759 1.086 10.397-4.19 12.31-3.724 1.345-8.38-.051-11.948-.362-5.897-.465-11.07 6.362-16.759 4.5-1.5-.465-3.259.104-4.759-.155-1.137-.207-2.637-1.345-3.103-2.534-.776-1.862 1.086-3.259 2.586-3.673.207-.051 1.81.052 1.914.052 1.19.414 3.569.62 3.052.466-.88-.31-1.759-.57-2.638-.88C7.603 73.5 9.414 72.983 11.017 72c1.604-.931 2.328-2.483 3.57-3.776 1.861-1.914 3.672-3.517 5.792-5.069 1.397-1.034 3.931-1.914 4.81-3.569 1.5-2.845.673-6.052.621-9.155 0-5.897-.569-13.241-1.448-18.983 5.586.88 11.535.362 16.966-1.138-.31 2.949-.673 7.035-.983 10.035zM84.672 71.172c-1.086-2.948-1.758-2.638-3.569-5.12-2.482-3.362-5.948-9.466-7.965-13.552-1.655-3.31-1.19-4.655-1.759-8.328-.517-3.258-.207-9.93-.413-13.293.206-.155.155-.465-.052-.62-.259-3.983-.052-7.242.207-11.173.413-5.793.776-11.12.672-17.38 0-.516-.414-.258-.414.26.052 10.396-.93 18.775-.982 28.24 0 .053-.207 0-.207.053-3.362 2.638-9.931 3.155-15 2.069-.57-1.294-.88-2.535-1.19-3.931-1.81-8.587-3.207-16.294-4.707-25.604-.103-.517-.62-1.81-.259.259 2.38 14.638 2.38 15 3.932 22.862.413 2.224.93 4.396 1.448 6.569a.494.494 0 0 0 .155.62c.983 4.087 1.914 8.225 2.38 12.414.672 5.793-.88 11.69.93 17.328.983 3.052 3.673 5.586 5.07 8.43 1.603 3.208 1.861 6.984 3.62 10.035.672 1.138 1.707 2.018 2.69 2.845 1.293 1.086 2.379 2.328 3.569 3.517 5.379 5.328 9.62-1.965 11.275-6.879 1.035-2.948 1.707-6.62.57-9.62zm.362 5.018c-.155 2.43-2.379 8.017-4.5 10.655.31-1.655-1.137-2.586-1.81-4.138-.207-.517 1.707 3.88.983 4.81-.931 1.242-2.276 2.224-3.828 1.759-1.913-.62-3.31-2.276-4.913-4.5-.828-1.19-2.225-1.397-3.207-2.483-1.242-1.448-1.707-2.638-2.38-4.396-.672-1.656-1.086-5.225-1.862-6.828-1.396-2.897-4.086-5.224-5.224-8.276-1.965-5.327-.207-11.586-.672-17.069-.362-4.552-1.914-7.862-2.535-12.62 4.966.155 10.5.051 15.104-1.914.62 5.482.31 7.603.879 14.224.465 5.948 3 9.258 8.483 19.396 2.172 3.931 6 3.156 5.482 11.38z"/>
        <path fill="#000" d="M33.828 65.586c.465-.414 1.086-.362 1.603-.672.362-.207.62-.57.828-.931.569-1.035.413-2.224.31-3.362-.052-.259-.103 2.482-.828 3.465-.569.724-1.5.62-2.172 1.242-.259.103.052.413.259.258zM57.776 46.293c.88 1.862.103 3.828.62 5.741.414 1.449 2.949 3.828 2.794 3.621-1.293-1.758-2.483-3.103-2.535-5.43-.052-1.5-.983-4.19-.88-3.932z"/>
    </g>
</svg>
