<svg xmlns="http://www.w3.org/2000/svg" width="90" height="90"><g fill="none" fill-rule="evenodd"><path fill="#1A1A1A" d="M0 0h90v90H0z"/><path d="M48.814 65.865c1.29-2.432 1.487-4.999 1.42-7.648h-2.41v-.514h5.124v.5h-2.16c0 .847.033 1.659-.009 2.468-.099 1.935-.517 3.795-1.414 5.527-.1.19-.103.329.008.512.275.446.48.943.8 1.354.734.95 1.87.858 2.451-.191.514-.932.712-1.949.678-3.01-.004-.076-.003-.151-.003-.247h.525c.017 1.51-.176 2.948-1.219 4.126-.493.555-1.153.826-1.895.882-1.229.093-2.288-.234-3.082-1.266-.572.509-1.206.905-1.946 1.07-2.16.483-4.163.162-5.969-1.174-2.628-1.943-3.15-6.618.078-9.171.817-.644 1.69-1.215 2.513-1.802-.282-.905-.625-1.84-.864-2.805-.361-1.467-.233-2.887.585-4.21 1.15-1.863 3.926-1.988 5.302-.272 1.308 1.633 1.076 3.71-.333 5.233a6.208 6.208 0 0 1-2.368 1.6l4.188 9.038M42.5 57.857c-.55.332-.95.834-1.237 1.426-.379.776-.557 1.607-.626 2.467-.134 1.698-.048 3.366.558 4.984.934 2.5 4.296 3.148 5.994 1.221l-4.69-10.098m1.97-1.51a3.554 3.554 0 0 0 1.327-1.234c.597-.92.74-1.954.722-3.018-.013-.68-.066-1.36-.38-1.985-.254-.514-.655-.841-1.255-.869-.66-.03-1.252.131-1.563.753a2.67 2.67 0 0 0-.27 1.1c-.024 1.867.77 3.519 1.42 5.254m21.456-17.174v29.743h4.053v.703H57.54v-.668h3.942V39.18c-2.488-.066-4.59.708-6.217 2.621-1.24 1.458-1.696 3.225-1.974 5.057-.08.533-.134 1.07-.203 1.619h-.58v-10.04h22.425v10.01c-.681.089-.67.083-.72-.56-.141-1.79-.453-3.549-1.4-5.11-1.544-2.547-3.877-3.666-6.886-3.603m-51.268-.008v-.731h11.527v.712h-3.8c2.64 8.262 5.252 16.445 7.865 24.625l.11.023 7.52-24.629h-3.63v-.736h7.53v.736c-.81 0-2.025.007-2.425.007-.4 0-.564.085-.682.474-3.162 10.366-6.34 20.727-9.516 31.09-.072.235-.096.473-.475.476-.415.003-.416-.286-.493-.523-3.356-10.305-6.713-20.611-10.048-30.926-.156-.481-.363-.63-.852-.606-.865.038-1.734.008-2.631.008m3.271-11.998c-1.26 0-2.328-.3-3.192-.9v-1.8c.348.3.804.564 1.392.792a4.992 4.992 0 0 0 1.728.324c.912 0 1.62-.336 1.62-.972 0-.3-.144-.564-.432-.696a2.021 2.021 0 0 0-.48-.216l-.288-.096-.672-.204-.624-.204c-.12-.036-.312-.108-.564-.204a2.937 2.937 0 0 1-.54-.252c-.228-.156-.636-.444-.792-.732a2.646 2.646 0 0 1-.288-1.176c0-.744.288-1.332.852-1.752.564-.432 1.344-.648 2.316-.648.972 0 1.896.228 2.748.696v1.68a5.094 5.094 0 0 0-2.724-.792c-.948 0-1.428.276-1.428.828 0 .276.168.444.444.576.156.084.456.192.684.252.228.06.66.18.912.264.804.252 1.26.48 1.824.876.564.396.84.984.84 1.752 0 .804-.312 1.44-.948 1.908-.636.468-1.428.696-2.388.696zm11.852-2.4c.492.516 1.116.78 1.86.78s1.356-.264 1.848-.78.744-1.176.744-1.968-.252-1.452-.744-1.968-1.104-.78-1.848-.78-1.368.264-1.86.78-.732 1.176-.732 1.968.24 1.452.732 1.968zM27.286 22.8c0-1.224.408-2.256 1.236-3.096.828-.852 1.872-1.272 3.12-1.272s2.28.42 3.108 1.272c.828.84 1.248 1.872 1.248 3.096 0 1.212-.42 2.244-1.248 3.096-.828.852-1.86 1.272-3.108 1.272s-2.292-.42-3.12-1.272c-.828-.852-1.236-1.884-1.236-3.096zm19.532 4.368c-1.308 0-2.388-.408-3.252-1.224-.864-.828-1.296-1.872-1.296-3.144 0-1.284.432-2.328 1.284-3.144.864-.816 1.956-1.224 3.264-1.224.828 0 1.56.18 2.22.528v1.74c-.648-.432-1.38-.648-2.208-.648-.804 0-1.464.264-2.004.78-.528.516-.792 1.164-.792 1.968s.276 1.464.816 1.98c.54.516 1.224.768 2.052.768.912 0 1.68-.24 2.304-.732v1.74c-.684.408-1.476.612-2.388.612zM57.41 27h-1.728v-8.4h1.728v3.312l3.096-3.312h2.112l-3.564 3.852L63.23 27h-2.208l-3.612-3.876V27zm14.528.168c-1.26 0-2.328-.3-3.192-.9v-1.8c.348.3.804.564 1.392.792a4.992 4.992 0 0 0 1.728.324c.912 0 1.62-.336 1.62-.972 0-.3-.144-.564-.432-.696a2.021 2.021 0 0 0-.48-.216l-.288-.096-.672-.204-.624-.204c-.12-.036-.312-.108-.564-.204a2.937 2.937 0 0 1-.54-.252c-.228-.156-.636-.444-.792-.732a2.646 2.646 0 0 1-.288-1.176c0-.744.288-1.332.852-1.752.564-.432 1.344-.648 2.316-.648.972 0 1.896.228 2.748.696v1.68a5.094 5.094 0 0 0-2.724-.792c-.948 0-1.428.276-1.428.828 0 .276.168.444.444.576.156.084.456.192.684.252.228.06.66.18.912.264.804.252 1.26.48 1.824.876.564.396.84.984.84 1.752 0 .804-.312 1.44-.948 1.908-.636.468-1.428.696-2.388.696z" fill="#FFF"/></g></svg>