<svg xmlns="http://www.w3.org/2000/svg" width="87" height="90" viewBox="0 0 87 90">
    <g fill="none" fill-rule="nonzero">
        <path fill="#F6F4F4" d="M2.72 74.093c-.365.419-.993 1.622-1.255 2.25-.628 1.517-.314 2.93.314 4.605 1.099 2.93 4.03 4.657 7.169 4.186 1.726-.262 3.82-1.413 5.442-.837.941.313 3.034-.42 4.447-.733 5.756-1.256 10.622-6.331 16.326-7.901 1.779-.471 3.558-.366 5.442-.366 1.674 0 3.82.104 5.442-.105 2.825-.419 6.854-1.622 7.639-4.919.733-2.825-.105-6.593-2.04-8.79-.262-.314-1.1-.68-1.309-.942-1.674 3.976-5.756 7.22-9.21 9.523-1.987 1.36-4.185 2.25-6.435 3.087-2.826 1.047-5.547 2.302-8.372 3.244-3.558 1.152-9.053 1.622-11.983-1.36-1.465-1.465-1.465-4.71-.261-6.645-2.46-.105-5.495.941-8.059 2.668-1.203.68-2.354 1.936-3.296 3.035zM58.919 81.366c.366 2.407 1.15 4.03 1.674 5.076 1.831 3.506 4.71 3.192 6.436 3.087 4.814-.366 5.704-.052 9.576-1.36 3.505-1.204 5.598-3.35 6.854-7.012.942-2.826.942-3.14-.575-6.227-.524-.994-1.675-5.599-1.622-4.552.104 2.669-1.518 3.715-3.715 5.18-3.506 2.355-9.314 2.826-13.396 1.989-2.46-.524-4.761-1.727-5.756-4.239.262 2.04-.104 3.872.524 8.058z"/>
        <path fill="#000" d="M30.977 54.628c-.105 2.878-1.518 4.866-3.663 6.75-3.192 2.825-6.907 5.599-10.936 5.651-.314 0-.576.105-.837.157-.105-.105-.262-.157-.419-.052-.105.052-.157.104-.262.209-1.83.314-3.662.576-5.337 1.36-2.511 1.152-5.18 2.983-7.064 5.024C1.203 75.14.105 77.913.576 80.267c.261 1.36 1.308 2.826 2.459 3.559 1.308.784 2.25 1.098 3.715 1.412.733.157 2.46.105 3.192 0 1.465-.261 2.198-.732 2.668-.785.942-.104 1.675.367 3.245.157 2.145-.313 4.238-1.15 6.331-1.883 2.878-1.047 5.39-2.983 8.11-4.343 2.407-1.204 4.92-2.25 7.64-2.355 1.936-.105 3.82.052 5.756-.262 2.46-.418 5.075-.47 7.325-1.726 4.239-2.355 3.506-9.576.785-12.872-.523-.628-1.15-1.152-1.57-1.884-1.255-2.302-1.779-5.547-2.354-8.058a68.31 68.31 0 0 1-.994-5.704c-.419-3.349-2.041-9.785-.733-12.924 2.512-5.913 2.564-8.53 2.773-14.285.21-5.547-1.36-10.936-2.93-16.169-.157-.47-.523-.209-.366.262 1.413 4.762 2.93 9.052 2.982 14.076.053 4.761-.627 10.36-2.459 15.331-1.727 4.605-.366 8.948.157 13.71.419 3.505 1.099 7.01 2.145 10.464.471 1.518.785 2.617 1.413 3.663 0 0 0 .052-.052.052-1.308 3.663-5.023 6.594-8.058 8.844-3.192 2.354-6.803 3.505-10.413 4.97-3.82 1.57-7.901 3.61-12.14 2.669-1.726-.366-4.238-.994-4.97-2.773-.628-1.518-.419-4.239.89-5.442 5.703-1.204 11.458-4.5 14.964-9.471 1.989-2.773 1.727-5.547 1.204-8.738-.262-1.465-.576-2.93-.994-4.343-.89-3.245-2.93-7.117-4.187-10.256-4.08-10.099-7.691-19.413-9.732-30.14-.105-.47-.523-.314-.419.157 1.884 10.151 5.704 19.78 9.576 29.303 1.465 3.61 2.982 7.22 4.029 10.988.21.732.366 1.465.576 2.198.523 2.302.941 4.657.837 6.959zM14.285 74.93c2.982 3.035 8.424 2.564 11.982 1.36 2.826-.941 5.547-2.197 8.373-3.243 2.25-.838 4.447-1.727 6.436-3.088 3.453-2.354 7.534-5.546 9.209-9.523.21.314.89.785 1.151 1.151 1.988 2.25 2.878 5.913 2.145 8.739-.837 3.296-5.075 4.447-7.9 4.866-1.623.261-3.454.105-5.129.105-1.831 0-3.61-.105-5.442.366-5.703 1.517-10.779 6.645-16.587 7.901-1.413.314-3.453.837-4.186.576-1.884-.628-3.506.627-5.18.89-3.14.47-5.86-1.204-7.326-3.978-1.57-2.982.314-6.331.68-6.75.942-1.099 2.46-2.407 3.611-3.192 2.564-1.726 4.762-2.616 7.901-2.825-1.203 1.884-1.15 5.128.262 6.645zM60.122 54.21c0 4.813-1.36 8.371-2.093 18.052-.419 5.65.419 9.89.942 11.407.576 1.726.942 2.72 2.669 4.97 1.622 2.094 7.43 1.256 10.57.785 5.232-.784 9-2.25 11.406-7.22 1.989-4.187.21-7.483-2.302-12.873-.785-1.674-1.151-4.395-1.674-6.279-2.25-7.796-1.1-4.133-1.204-7.64-.052-2.04-.419-2.459-1.256-5.18C75.82 45.838 89.058 15.28 86.076.524c-.105-.418-.576-.418-.524 0 1.36 12.035-1.674 21.035-7.22 40.343-.68 2.407-1.727 6.122-2.303 7.85-.523 1.621 2.93 3.662 1.78 7.796-.42 1.412 1.412 6.017 1.621 7.064.523 1.883 1.047 5.075 1.151 5.912.21 2.303-.47 3.506-2.145 5.18-2.616 2.565-8.163 2.93-11.669 2.774-3.505-.157-7.377-1.308-7.796-5.599 0 0-.314-2.25.105-5.285.366-2.825 1.936-11.145 1.831-12.663-.105-1.726-1.308-3.348-.68-5.86.104-.471 0-1.204 2.093-8.53 1.727-6.121.261-9.575-.157-11.772C59.86 16.064 60.017 4.186 60.227.837c.052-.418-.524-.052-.524.366-.261 8.163.367 15.437 1.675 23.861.837 5.39 1.099 7.22.575 11.355-1.36 10.517-1.098 5.337-2.197 11.04-.994 4.762.366 3.715.366 6.75zm3.61 23.284c4.082.837 8.582.837 12.402-1.099 1.36-.68 5.075-2.407 5.18-5.285.052-1.83.523 2.355 1.831 4.239 1.047 1.517 1.256 3.087.367 5.756-3.035 8.79-11.303 7.43-12.454 7.796-2.302.68-4.186.628-5.651.628-1.204 0-3.349.262-5.076-4.448-1.098-2.93-1.517-4.133-1.674-11.197.942 2.459 2.669 3.087 5.076 3.61z"/>
        <path fill="#000" d="M62.634 86.076c0-1.36 1.308-2.25 2.564-2.512 1.674-.366 3.192.366 4.081 1.779.157.21.471 0 .314-.21-.994-1.569-2.669-2.406-4.552-1.988-1.413.314-2.826 1.308-2.826 2.878 0 .262.419.262.419.053zM16.953 69.75c1.937-2.093 4.082-3.767 6.646-5.076.21-.104 0-.47-.21-.314-2.563 1.36-4.709 3.035-6.697 5.128-.21.21.052.471.261.262zM30.349 78.28a32.8 32.8 0 0 1 8.895-3.873c.262-.052.157-.419-.104-.366a31.37 31.37 0 0 0-9 3.924c-.21.105 0 .419.209.314zM3.977 82.256C3.663 81 4.5 79.483 5.756 79.169c.837-.21 1.779-.053 2.616-.262.262-.052.157-.419-.105-.366-1.15.261-2.564-.105-3.558.732-.89.785-1.412 1.989-1.15 3.14.104.21.47.104.418-.157zM66.401 12.663v.942c0 .261.419.261.419 0v-.942c-.053-.262-.419-.262-.419 0zM41.18 33.227c.262 0 .262-.419 0-.419-.261.052-.261.419 0 .419zM42.436 49.71c.105 1.621.262 3.139.523 4.76.157.943.471 1.99.367 2.983-.157 1.989-1.413 2.93-2.93 3.977-.21.157 0 .471.209.314 1.36-.942 2.668-1.884 3.035-3.558.575-2.616-.68-5.808-.838-8.424 0-.314-.418-.314-.366-.053zM29.093 26.581c2.04 3.192 4.919 5.547 8.424 6.907.262.105.314-.314.105-.366-3.401-1.308-6.227-3.61-8.163-6.698-.157-.261-.47-.052-.366.157z"/>
        <path fill="#000" d="M65.93 4.395c.471 6.07.314 12.088-.418 18.105-.053.262.366.262.418 0 .733-6.017.89-12.035.419-18.105 0-.261-.419-.261-.419 0z"/>
    </g>
</svg>
