<svg xmlns="http://www.w3.org/2000/svg" width="75" height="84" viewBox="0 0 75 84">
    <g fill="none" fill-rule="evenodd">
        <path fill="#000" fill-rule="nonzero" d="M28.65 74.213c1.055-3.022-1.343-8.155-1.919-11.225-1.007-5.42-1.823-8.395-1.343-12.904.384-3.886 1.583-2.159-.672-10.553-1.103-4.03-1.199-5.085-1.15-7.484.095-3.166.623-8.538 1.006-10.313.912-6.812 2.447-13.96 3.55-20.771.096-.48-.288-.528-.384-.048-1.103 6.86-2.542 13.863-3.645 20.483-5.229 1.103-14.008-.576-19.14-1.919.24 0-.432 1.151-1.68-4.125C1.932 9.837 1.5 7.054.876 1.49c-.048-.48-.192-.48-.144 0 .768 6.62.72 10.122 3.934 18.996.096.24 3.07 13.384 2.254 14.823-1.535 2.83-1.774 4.414-.911 7.244 1.343 4.509 1.247 9.354-1.679 18.564-.815 2.543-3.981 6.044-.624 10.937 2.303 3.358 6.764 4.03 9.786 4.797 6.045 1.631 12.808 4.318 15.159-2.638zm-6.38 3.742c-2.35 0-4.893-.816-7.148-1.295-4.605-.96-8.682-1.823-11.033-5.421-1.775-2.686.24-5.18 1.2-7.867.815-2.35.527-.528 1.007-2.926 1.151-5.709 1.439-14.871 1.679-20.628.192-5.612-1.68-13.623-2.399-19.236 5.085 1.248 12.856 2.927 18.037 1.92-.384 2.83-.336 5.66-.672 8.49-.431 3.454.192 6.572.816 9.978.72 4.03 1.103 7.723.72 11.752-.336 3.406-.672 6.812.431 10.17 1.2 3.55 4.174 7.148 3.022 10.937-.72 2.111-2.59 4.126-5.66 4.126z"/>
        <path fill="#000" fill-rule="nonzero" d="M8.407 72.63c-.48-.096-.576-.672 0-.72 5.852-.431 11.512.192 17.029 1.775.528.144.288.864-.24.72-5.42-1.631-11.129-.624-16.79-1.775z"/>
        <path fill="#F6F4F4" fill-rule="nonzero" d="M15.122 76.66c2.255.48 5.325 1.87 7.628 1.87 3.022 0 4.845-2.494 5.516-4.7 1.151-3.79-1.343-8.395-2.35-11.993-1.008-3.742-1.583-7.436-1.248-10.841.384-4.03 1.68-4.078.576-7.82-1.007-3.31-2.542-7.483-2.398-11.56.143-2.83.431-6.332.815-9.163-5.133 1.008-13.288-.767-18.373-2.062 4.078 20.387.432 13.24.432 20.051 0 2.83 2.926 4.51.912 14.391-.48 2.399-2.255 6.572-3.406 9.642-1.008 2.686-1.295 4.557.431 7.244 2.447 3.597 6.86 3.981 11.465 4.94zm-6.715-4.03c-.576.096-.576-.672 0-.72 5.852-.431 11.512.192 17.029 1.775.528.144.288.912-.24.72-5.42-2.159-11.033-2.542-16.79-1.775zM38.628 40.106c.575 3.694.24 5.037-.288 8.779-.48 3.262-1.535 5.996-2.686 9.018-1.631 4.413 1.726 7.867 5.564 9.738 2.734 1.343 6.236 1.44 8.73 3.166 2.351 1.583 3.455 4.557 5.47 6.476 2.59 2.495 6.091 5.805 10.6 6.188 2.255.192 6.38-.144 6.717-3.31.143-1.15 1.103-3.501 1.199-4.605.24-2.494 1.295-2.302 0-4.461-1.343-2.303-5.085-3.454-6.812-5.517-2.159-2.542-1.727-3.981-7.867-9.45-3.79-3.358-5.996-7.579-5.996-12.52 0-7.1 1.966-14.103 3.55-21.107-2.015.72-6.237.672-7.148.672-4.893.096-10.458-.384-15.255-1.103-.671.91 1.727 6.428 2.159 8.634 1.055 5.085 1.535 5.852 2.063 9.402z"/>
        <path d="M58.295 18.951c-.143.768-.335 1.583-.48 2.351a.264.264 0 0 1 .145.24.663.663 0 0 1-.288.528c-.336 1.63-.72 3.214-1.055 4.797-1.631 7.435-4.03 16.022-1.392 23.505 1.871 5.325 5.277 9.402 10.026 12.616 3.934 2.638 7.723 4.845 9.162 9.546.576 1.919.48 4.03.144 5.948-.48 2.59-1.343 3.886-4.173 4.51-6.236 1.295-13.048-2.687-16.981-6.908-2.447-2.638-5.133-4.557-8.491-6.044-2.734-1.2-5.9-2.303-7.963-4.462-1.919-2.062-2.974-4.845-2.063-7.53.624-1.776 1.535-3.407 2.063-5.23.575-2.11.815-4.317 1.103-6.476.96-7.77-2.063-14.726-3.166-22.258-.096-.767-.24-1.583-.336-2.398-.096-.096-.144-.24-.048-.384-.096-.768-.144-1.535-.24-2.35l-3.357-.336v70.708"/>
        <path fill="#000" fill-rule="nonzero" d="M35.558 28.641c2.398 8.155 3.358 11.273 2.398 19.045-.288 2.158-.48 2.974-1.103 5.084-.528 1.823-1.44 3.454-2.063 5.23-.911 2.685.144 5.468 2.063 7.53 2.063 2.16 9.114 3.934 11.848 5.133 3.358 1.487 3.31 3.838 5.757 6.476 3.933 4.27 9.402 7.532 15.638 6.236 2.83-.575 2.782-2.638 3.742-5.084.671-1.68 1.007-4.75 1.007-5.085 0-4.701-4.989-4.893-6.812-7.484-3.693-5.324-9.066-8.97-12.136-14.295-3.934-6.86-1.055-17.077.624-24.513.335-1.583.72-3.214 1.055-4.797a.663.663 0 0 0 .288-.527.264.264 0 0 0-.144-.24c.144-.768.336-1.583.48-2.35 1.055-5.517 2.302-11.13 3.118-16.262.048-.432-.192-.48-.288-.048-1.247 5.66-2.11 11.033-3.166 16.453-.192.912-.384 1.487-.624 2.399-.815.384-5.037.815-5.373.863a40.956 40.956 0 0 1-5.42.048c-3.838-.192-12.472-.863-12.664-1.583-1.487-6.14-1.008-14.199.96-19.86.143-.431-.145-.623-.289-.24-2.062 5.805-1.966 11.466-1.487 17.558.192.815 2.399 9.546 2.59 10.313zm14.15-5.468c.96 0 5.182.048 7.148-.672-1.583 7.004-3.501 14.008-3.55 21.107 0 4.941 1.967 9.258 5.661 12.712 6.668 6.14 5.66 8.06 9.402 10.746 1.104.815 2.687 1.247 4.51 2.83 2.062 1.823 1.295 3.981.959 5.996-.192 1.103-.768 2.159-1.343 4.893-.528 2.542-4.941 3.022-7.196 2.59-3.598-.72-7.34-3.597-9.93-6.044-2.014-1.919-3.597-5.373-5.948-6.956-2.542-1.678-5.565-1.343-8.299-2.686-3.837-1.919-7.243-5.325-5.564-9.738 1.15-3.07 2.158-5.804 2.686-9.018.576-3.502.911-6.428.24-10.985-.528-3.55-.96-5.133-2.35-9.642-.576-1.967-1.584-4.27-1.824-6.14 4.941.671 10.506 1.103 15.399 1.007z"/>
        <path fill="#000" fill-rule="nonzero" d="M66.93 79.826c1.343.335 2.926.191 3.79-1.056.24-.384.623-1.583-.288-1.343-.24.048-.144.432.096.336.432-.144-.336 1.055-.432 1.151-.815.768-2.015.768-3.07.528-.24 0-.336.336-.096.384zM23.037.435c.96 1.151-.096 5.037-.24 6.332-.24 2.015-.431 4.03-.671 5.996-.048.24.336.24.384 0 .288-2.782.623-5.564.911-8.347.144-1.343.816-3.166-.096-4.269-.192-.144-.431.096-.288.288zM41.122 45.143c.24 2.639-.72 4.99-.72 7.58 0 1.39.528 2.59 1.823 3.165.192.096.384-.191.192-.287-2.59-1.248-1.439-4.126-1.103-6.236.24-1.392.24-2.783.144-4.222 0-.24-.336-.24-.336 0zM7.495 25.62c5.325 1.39 10.697 1.534 16.118.527.24-.048.144-.384-.096-.336-5.373 1.008-10.601.864-15.926-.527-.24-.096-.336.287-.096.335zM35.078 26.003c4.701 1.151 9.402 1.295 14.2 1.295.239 0 .239-.384 0-.384-4.798 0-9.451-.143-14.104-1.295-.24 0-.336.336-.096.384zM53.21 27.298c1.152-.431 2.351-.72 3.55-.815.24 0 .24-.384 0-.384-1.247.144-2.494.384-3.645.863-.24.048-.144.432.096.336z"/>
    </g>
</svg>
