<svg xmlns="http://www.w3.org/2000/svg" width="89" height="90" viewBox="0 0 89 90">
    <g fill="none" fill-rule="nonzero">
        <path fill="#000" d="M34.331 63.506c3.894-2.832 5.259-4.602 5.663-5.866.81-2.477.658-2.73-.1-5.561-.709-2.781-3.136-12.085-3.287-14.259-.607-7.483-.05-14.41 1.011-19.517 1.466-7.28 1.77-6.674 1.112-17.494-.05-.455-1.01-.96-.96-.455 2.073 17.19-2.882 16.23-1.972 33.32.354 7.028.404 6.118 1.213 10.011 0 .051.708 2.528.708 3.944-.708 3.489-4.298 7.888-7.736 8.747-3.286.81-9.86.304-11.932-2.932.1-.152.202-.253.303-.405 1.719-2.224 3.59-7.837 3.59-7.887.05-.607-.354-4.601-.455-5.865-.556-4.703-2.073-12.59-3.438-16.635-2.882-8.748-3.287-12.337-6.371-20.377-.152-.455-.304-.253-.152.152 2.73 7.786 3.084 9.758 5.714 19.416 1.415 5.258 2.73 11.78 3.488 17.19.203 1.467.708 5.006 0 7.383-1.365 2.275-1.82 4.348-3.337 6.472-.151.05-.303.202-.253.354-.252.404-.556.809-.809 1.213-.758 1.214-1.061 2.579-1.77 3.792-2.78 4.652-5.46 4.854-6.926 6.725C5.562 67.702 2.68 69.725.96 72.96c-1.467 2.73.606 7.432 2.983 9.455 2.174 1.921 3.337 2.376 5.814 3.792 2.175 1.213 4.854.404 7.08-1.062 1.162-.758 1.111-.556 1.87-1.668.86-1.214 2.376-1.062 4.55-4.652 1.517-2.528 1.72-5.714 3.54-8.09.1-.152 1.517-1.972 1.415-2.073 1.062-1.416 4.551-3.994 6.118-5.157z"/>
        <path fill="#000" d="M87.472 87.472c3.034-5.107-3.084-10.82-4.55-11.528-1.568-.759-5.967-2.427-6.978-4.146-.405-.759-1.264-1.517-3.236-4.55-4.399-6.928-7.736-10.619-8.191-12.439-1.011-3.893-1.264-7.23-1.264-9.253-.05-5.056.303-12.69.607-17.747.556-9.758 3.438-17.95 1.77-26.848-.102-.455-.355-.101-.304.354.556 5.005.455 7.786-1.922 26.09-.606 4.702-.808 13.348-.758 18.05.05 2.124.455 6.775.86 8.343.657 2.68 2.882 5.005 4.55 7.786-.253.304-.96.96-.96.96-1.265.709-3.54 1.366-4.349 1.518-1.921.404-3.944.404-5.865.151-3.54-.505-6.978-2.73-9.96-4.55.353-1.163.556-3.742.454-4.905l-.1-6.825c-.607-11.124-2.883-18.253-3.085-18.607-3.489-5.107-5.713-15.674-5.006-28.669.051-.455-.606-.455-.657 0-.556 10.214.455 20.225 5.208 30.135.354.708 1.921 4.298 2.376 12.438.354 5.158.708 10.113.708 10.163 0 .101-1.011 8.444-.607 5.613 0 0-1.314 3.539-1.314 3.59-.354 1.314-4.652 6.522.708 12.185 2.224 2.326 5.258 2.427 8.292 2.427 2.376 0 3.741-.202 6.067.505 1.871.557 4.045 1.82 5.31 2.883 6.673 5.258 3.842 5.106 12.185 7.584 9.202 2.578 8.797 1.314 10.01-.708zM15.573 79.534a3.526 3.526 0 0 0-4.601 1.365c-.253.404.404.758.607.354.708-1.214 2.325-1.72 3.59-1.113.455.203.86-.404.404-.606z"/>
        <path fill="#F6F4F4" d="M81.708 75.893c-1.365-.708-3.388-1.517-4.399-1.921a16.803 16.803 0 0 0 4.652 4.197c.404.252-5.158-3.236-6.674-6.017-.051-.05-.051-.152-.051-.203-.101-.151-.556-.86-.657-1.01a114.528 114.528 0 0 0-2.983-4.248c-1.113-1.517-1.77-3.084-3.186-4.298-.657.455-1.921 1.264-2.63 1.568-1.971.86-4.196 1.213-6.32 1.213-4.6 0-8.949-1.972-12.791-4.298-1.77 2.882-5.765 7.686-1.062 13.5 2.578 3.236 7.736 1.82 11.376 2.073 1.264.102 2.528.304 3.64.86 1.164.556 2.832 1.264 3.894 2.022l2.63 1.82c1.364.91 2.932 2.731 4.701 3.894 2.73 1.82 5.158 2.174 7.028 2.78 3.995 1.265 8.14 2.074 8.495-2.224 0-.152.05-1.82.151-1.87-.202-4.602-4.853-7.332-5.814-7.838zM38.882 58.652c2.376-4.045-.202-8.849-.607-9.91-1.213 3.387-5.36 7.887-8.95 8.494-3.437.607-9.454 0-11.78-3.185-.809 1.162-1.466 2.376-2.073 3.792-.405.96-.708 1.972-1.365 2.831-1.568 2.124-3.388 2.225-5.208 4.146C7.382 66.438.506 71.697.759 75.337.91 77.258 2.325 79.281 3.134 81c2.882 2.831 3.185 2.275 4.399 3.337 3.185 2.781 6.118 2.933 10.365-1.011 2.174-2.023 4.601-3.489 5.309-6.068.101-.404 1.213-3.792 1.264-4.196 2.528-4.601 3.69-5.613 5.258-7.18 2.174-2.174 6.927-3.438 9.152-7.23z"/>
        <path fill="#000" d="M13.197 61.028c-.81 1.921-2.225 3.337-3.388 5.056-.152.203.202.405.303.203 1.163-1.72 2.579-3.135 3.388-5.057.152-.202-.202-.404-.303-.202zM50.815 50.815c.505 4.348-2.528 10.213 2.831 12.286.253.101.303-.303.101-.354-5.056-1.972-2.073-7.887-2.578-11.932 0-.253-.405-.253-.354 0zM59.309 76.348c1.921.759 3.388 1.77 4.955 3.135.202.152.455-.101.253-.253-1.568-1.415-3.135-2.477-5.107-3.236-.253-.1-.354.253-.101.354zM33.927 51.472c1.213-1.112 1.82-1.921 1.618-3.54-.152-1.365-.455-2.78-.809-4.145-.05-.253-.405-.152-.354.1.253 1.012.455 2.074.657 3.085.101.556.253 1.213.203 1.77-.051 1.061-.86 1.77-1.568 2.477-.202.101.05.405.253.253z"/>
    </g>
</svg>
