<svg xmlns="http://www.w3.org/2000/svg" width="66" height="90" viewBox="0 0 66 90">
    <g fill="none" fill-rule="nonzero">
        <path fill="#000" d="M29.824 87.367c.91-2.058 1.628-5.697 2.73-10.101.478-2.01.43-2.394.813-4.404.574-3.064-.191-8.33 1.005-11.25.91-2.155 3.543-11.442 3.734-13.883.192-2.346-2.585-7.181-3.686-8.474-1.292-1.484-2.776-4.069-3.542-5.888C28.005 26.473 27.527 4.931 24.463.91c-.287-.383-.479.191-.335.67 1.34 4.213 1.005 1.675 2.537 9.574 1.005 5.314 1.436 17.474 3.303 22.596.383-.527-3.064 2.729-3.112 2.729-3.35 2.345-6.75 3.494-10.77 4.117-.719-1.006-4.166-7.756-4.692-8.76C6.75 23.505 1.819 15.175.814 12.16c-.144-.48-.91.095-.67.526 1.867 3.447 5.649 10.245 10.1 18.192.815 1.436 4.166 8.712 5.027 10.1-.143.24 2.538 4.357 2.777 6.272.526 3.734-1.867 7.995-3.208 11.394-1.244 3.16-2.154 6.462-3.35 9.622-.67 1.723-1.916 3.543-2.25 5.362-.431 2.537 1.1 5.266 1.962 7.563.862 2.346 2.298 3.639 4.548 4.836 2.537 1.34 5.362 2.633 8.09 3.494 2.442.814 4.98.192 5.984-2.154z"/>
        <path fill="#000" d="M42.941 31.691C41.65 23.505 35.57 15.32 38.06.718c.095-.479-.336-.24-.431.24-2.585 12.733 3.35 22.547 4.691 31.116 1.388 8.665 1.293 24.942-.622 33.559-1.771 7.947-3.543 8.426-5.362 16.707-.43 1.963-1.723 5.601.527 6.99 2.393 1.532 6.75-.048 9.048-1.053.143-.048 1.914-.575 2.058-.575 6.99-1.005 10.101-.67 13.021-5.218 2.011-3.112.766-7.372.24-10.101-2.633-14.266 1.819-14.122.622-17.186-3.447-8.952-1.82-11.298-2.058-14.362.383-.287.047-2.202-.048-1.436.574-5.122 2.202-12.064 2.728-14.888 1.724-8.857 3.83-12.495 3.304-21.59-.048-.48-.527-.384-.527.143.527 8.713-2.68 16.516-4.021 25.037-.575 3.734-2.394 7.516-2.538 11.298 0 .191-.143.479-.191.67-3.973 2.537-9.574 1.963-14.074 1.197-.144-3.543-.91-5.936-1.485-9.575zm16.42 9c-1.244 12.639 1.82 13.548 1.102 15.75-.766 2.25-1.34 6.272-.862 10.437.479 4.02 1.771 5.984 1.484 10.053-.526 8.617-9.718 10.1-16.66 10.436-.478 0-3.973 2.154-5.648 1.771-3.734-.957-2.059-4.978-1.532-7.372.814-3.543 2.298-7.133 3.399-10.58 2.202-6.702 3.877-13.26 4.452-20.346.24-2.824.24-5.6.143-8.377 4.548.622 10.054.574 14.123-1.772z"/>
        <path fill="#000" d="M40.309 84.064c4.26-1.436 8.569-2.059 13.069-1.915.478 0 .478-.718 0-.766-4.548-.192-8.952.43-13.261 1.915-.479.191-.287.91.192.766zM24.415 79.66c-1.867-.575-4.117-.431-5.697-1.58-1.915-1.436-3.447-4.26-5.84-4.931-.48-.144-.67.574-.192.718 2.298.622 3.878 3.638 5.793 4.979.957.67 1.915.718 3.064.91 2.345.43 4.595 1.1 6.414 2.776.383.335.91-.192.527-.527-1.149-1.1-2.49-1.867-4.07-2.345z"/>
        <path fill="#F6F4F4" d="M32.888 71.378c.144-2.681.288-7.133.862-9.718.527-2.442 2.968-9.096 3.351-11.538.527-3.016 0-4.356-.527-5.888-.622-1.82-1.244-2.729-3.35-5.553-.384-.479-2.06-3.447-2.681-4.452-2.538 3.016-10.197 6.558-14.123 7.228 1.053 1.532 1.867 3.304 2.25 4.98.766 3.11-.814 6.51-1.915 9.334-1.962 5.075-3.446 10.436-5.744 15.415-.527 1.101-1.101 2.107-1.101 3.351 0 1.484.67 3.016 1.196 4.404.575 1.485.958 3.256 2.059 4.405.957 1.005 2.25 1.723 3.495 2.298 2.489 1.196 8.33 4.452 10.723 2.872 3.351-2.154 2.394-3.495 3.303-6.846.814-2.729 1.82-4.117 2.202-10.292zM44.234 51.176c-.622 7.085-.862 12.015-3.064 18.718-1.149 3.446-3.064 8.282-3.877 11.824-.575 2.442-2.633 6.942 1.1 7.851 1.676.431 4.98-1.34 4.98-1.34-.48 0 .622-.862 1.1-.91 6.942-.335 17.857-.43 17.09-9.718-.334-4.07-1.244-5.553-1.675-9.574-1.1-10.532 2.25-10.437.766-14.123-2.441-5.936-1.292-9.43-1.244-13.213-4.022 2.346-10.245 2.346-14.745 1.628.096 2.777-.192 6.032-.431 8.857zm9.144 30.255c.478 0-.431.287-.91.287-4.5-.191-7.899.91-12.16 2.346-.478.143-.67-.575-.191-.718 4.26-1.484 8.713-2.107 13.26-1.915z"/>
        <path fill="#000" d="M30.734 44.33c.718-1.006 1.532-1.867 1.484-3.16-.096-2.729-2.394-5.6-3.782-7.755-.143-.192-.43 0-.287.191 1.34 2.107 3.638 4.931 3.734 7.564.048 1.245-.766 2.01-1.436 2.968-.144.192.191.383.287.192zM44.617 45.718c3.207.144 6.176.91 9.383.527 1.915-.24 3.973-.288 5.41-1.724.143-.143-.096-.43-.24-.24-1.771 1.724-5.505 1.82-7.803 1.772-2.25-.048-4.5-.574-6.75-.67-.24-.048-.24.335 0 .335zM18.144 45.144c2.68-.814 5.17-1.915 7.611-3.304.192-.095 0-.43-.191-.287-2.394 1.388-4.883 2.49-7.516 3.256-.24.047-.144.382.096.335z"/>
        <path fill="#000" d="M31.07 36.574c-.336.527-.671 1.006-1.006 1.532-.144.192.191.383.287.192.335-.527.67-1.005 1.005-1.532.192-.192-.143-.383-.287-.192z"/>
        <path fill="#000" d="M28.293 39.83a7.28 7.28 0 0 0 3.111-3.351c.096-.192-.191-.383-.287-.192a6.899 6.899 0 0 1-2.968 3.208c-.24.143-.048.478.144.335z"/>
    </g>
</svg>
