<svg xmlns="http://www.w3.org/2000/svg" width="48" height="90" viewBox="0 0 48 90">
    <g fill="none" fill-rule="evenodd">
        <path fill="#000" fill-rule="nonzero" d="M1.875 57.984c.188 1.828.14 3.657.14 5.485-.046 3.328-.14 6.75 1.079 9.89 2.062 5.297 7.781 8.204 13.265 7.266l-.703 1.547c-1.36 2.906-1.031 6.234 1.688 7.172.047.14.14.281.328.234.187 0 .375-.047.562-.047.375.047.75.094 1.22.047.14 0 .233-.094.28-.14 4.22-.376 8.391-1.126 12.47-2.344 3.14-.938 4.03-3.188 2.952-6.281-.797-2.204-1.172-4.22-1.64-6.516-.328-1.594-1.22-3.375-.891-5.016.328-1.594.938-2.719.938-4.406 0-2.063-.329-4.078-.516-6.14.469-8.438 4.266-16.407 7.125-24.235 3.047-8.25 6.047-16.547 7.594-25.219.093-.469-.657-.703-.75-.187-1.641 9-1.5 9.656-4.688 18.187-2.062 5.625-7.828 19.172-9.187 25.078 0 0-.047 0-.047.047-1.36 1.172-2.766 2.063-4.547 2.063-1.453-.047-4.594-.516-4.969-2.39-.047-.188-.14-.235-.281-.282 1.125-9.094 1.078-16.688.61-26.016 0-.047.234-2.11.234-2.156l2.25-4.64c1.968-4.313 3.609-8.72 4.125-13.454.047-.468-.703-.468-.75 0-.61 5.719-2.11 9.985-4.641 15.188-2.016 4.172-5.953 9.703-6.75 14.39-3.984 1.125-6.516-.843-9.375-3.047-.047-.046-.14-.046-.188-.046.47-3.188.657-6.47.516-9.563C8.766 9.047 8.906 7.734 11.25.797c.14-.469-.563-.656-.75-.188-1.922 5.72-1.969 11.86-1.969 17.86.047 6.093.422 12.61-1.687 18.422-2.016 5.343-8.157 8.906-6.375 15.328.515 1.968 1.219 3.75 1.406 5.765zm25.781-3.234c2.11.234 3.703-.14 5.297-1.266-.328 1.735-.61 3.47-.703 5.25.281 3.328.89 6.47-.188 9.703-.703 2.11.235 3.938.704 6 .328 1.594.375 3.235.937 4.829.61 1.734 2.016 3.656.75 5.578-.562.844-1.828 1.265-2.766 1.547a61.39 61.39 0 0 1-13.359 2.343c-2.11-.328-3.094-2.109-2.719-4.453.235-1.36 1.172-2.672 1.782-3.89a24.844 24.844 0 0 0 2.343-7.032c.422-2.343.375-4.687.328-7.03-.046-3.188.844-5.907 1.782-8.907.468-1.5.89-3.047 1.218-4.547.797 1.5 3.047 1.688 4.594 1.875zm-8.625-18.984c.469-.047.516-.75.094-.75.516-2.907 2.156-5.578 3.469-8.203.328-.61.61-1.22.937-1.875.328 6.375.61 12.75.14 19.078-.28 3.515-.796 7.078-1.687 10.5-.75 2.906-2.062 5.718-2.484 8.718-.094.75-.14 1.5-.188 2.203-1.359-4.593-2.39-9.515-1.64-14.25.422-2.578 1.219-4.968 1.312-7.593.047-2.578-.28-5.203.047-7.828zM6.094 40.172c1.36-2.297 2.156-4.828 2.578-7.453 2.906 2.25 5.953 3.328 9.562 3.093-.047.235-.047.47-.093.704-.188 2.625.187 5.297 0 7.922-.141 2.718-1.22 5.25-1.407 7.968-.375 5.016.844 10.172 2.344 14.907.047.14.094.187.188.234 0 1.875.047 3.703-.282 5.578-.047.14-.047.281-.093.422-2.766-.281-5.485.047-8.157.937-.468.141-.28.891.188.75 2.531-.843 5.11-1.171 7.781-.937-.469 1.922-1.219 3.656-2.015 5.437-4.36.985-9.141-.703-11.766-4.406C2.39 71.766 2.625 67.172 2.672 63c.047-2.016.047-3.984-.235-5.953-.28-1.875-1.03-3.563-1.453-5.39-1.03-5.016 2.86-7.688 5.11-11.485z"/>
        <path fill="#000" fill-rule="nonzero" d="M18.703 83.25c3.375-1.266 6.89-1.688 10.5-1.266.469.047.469-.703 0-.75-3.656-.421-7.219 0-10.687 1.313-.47.14-.282.89.187.703z"/>
        <path d="M17.672 51.234c-.75 4.688.281 9.657 1.64 14.25 0-.75.047-1.5.188-2.203.422-3 1.688-5.812 2.484-8.718.891-3.422 1.407-6.985 1.688-10.5.469-6.376.187-12.75-.14-19.079-.329.61-.61 1.22-.938 1.875-1.313 2.625-2.907 5.297-3.469 8.203.422.047.375.704-.094.75h-.047c-.328 2.626 0 5.25-.047 7.876 0 2.578-.843 4.968-1.265 7.546z"/>
        <path fill="#F6F4F4" fill-rule="nonzero" d="M2.531 57.047c.281 1.969.281 3.984.235 5.953-.047 4.172-.657 8.86 1.828 12.469C7.219 79.172 12 81.28 16.406 80.297c.797-1.781 1.875-4.031 2.344-5.953-2.672-.235-5.25.094-7.781.937-.469.14-.656-.562-.188-.75 2.672-.89 5.344-1.219 8.156-.937.047-.14.047-.281.094-.422.328-1.875.282-3.703.282-5.578-.094-.047-.141-.094-.188-.235-1.5-4.734-2.297-8.578-1.922-13.546.188-2.72 1.125-7.172 1.266-9.891.14-2.625.047-4.734.234-7.36 0-.234-.469-.468-.469-.703-3.609.235-7.125-1.265-10.078-3.515-.469 2.625-.75 5.531-2.11 7.828C3.797 43.969-.608 46.5.517 51.516c.468 1.828 1.734 3.656 2.015 5.53z"/>
        <path fill="#F6F4F4" fill-rule="nonzero" d="M21.89 57.422c-.937 3-2.296 2.625-2.062 9.187.094 2.391.328 4.407-.094 6.75-.422 2.438-1.828 4.97-2.953 7.172-.61 1.219-1.312 3.188-1.5 4.547-.375 2.344 1.172 3.61 3.281 3.938 4.547-.282 8.766-1.407 13.125-2.672.938-.281 2.204-.656 2.766-1.547 1.266-1.922.656-2.953.094-4.688-.563-1.546-1.453-4.078-1.781-5.718-.422-2.11-1.5-3.938-.703-6 2.203-5.672.468-6.375.187-9.704.094-1.78.516-3.843.89-5.578-1.593 1.125-3.421 1.828-5.53 1.594-1.547-.187-3.985-.844-4.782-2.344-.281 1.594-.469 3.563-.937 5.063zm7.313 23.812c.469.047.469.797 0 .75-3.61-.421-7.078 0-10.5 1.266-.469.188-.656-.563-.187-.75 3.468-1.266 6.984-1.734 10.687-1.266z"/>
        <path fill="#000" fill-rule="nonzero" d="M7.64 39.516c-.421.797-.796 1.64-1.218 2.437-.234.469-.797 1.125-.75 1.688 0 .422.422.937.656 1.265.469.797.938 1.547 1.453 2.297.282.422.938 0 .657-.375-.563-.844-1.782-2.203-1.782-3.234-.047-1.078 1.219-4.547.985-4.078z"/>
    </g>
</svg>
