<svg xmlns="http://www.w3.org/2000/svg" width="77" height="90" viewBox="0 0 77 90">
    <g fill="none" fill-rule="nonzero">
        <path fill="#000" d="M12.95 82.65c2.45.7 7.05.1 9.3-.9.05 0 .1 0 .15-.05l.3-.15c.55-.25 1.05-.6 1.55-.95 1.25-.9 2.5-1.85 3.9-2.55 2.25-1.1 7.9-.95 10.35-.9 3.6.05 7 .3 10.35-1.2.2-.1.25-.25.2-.45 1.95-1.55 2.65-4.55 2.05-7.05-1-4.1-3.9-7.8-5.7-11.55-1.25-2.6-1.2-5.6-1.25-8.45-.1-3.75.05-7.5.25-11.25.3-6.15.7-12.3.8-18.45l.45 1.2c3.45 9.5 5 11.25 5.9 21.2.4 4.55-.05 17.65.6 22.15.25 1.8.3 3.4.05 5.05-.05.05-.05.15-.05.2v.15c-.1.75-.25 1.5-.5 2.3-.45 1.75-.9 3.5-1 5.3-.1 2.25-.35 13.95 3.95 13.5.05.05.15.1.25.1 3.8-.15 3.65-1.45 7.05-2.7 4.9-1.8 7.75-4.2 9.8-6.2.8-.8 2.45-3.8 2.95-5.35 2-5.55.4-4.55.15-10.35-.2-4.55.15-10.65 1.2-15.1.6-2.5 1.05-3.55.45-6.65-.4-2.2-1.35-3.2-3.85-5.2-3.5-2.75-5.25-3.95-7.7-11.1C62.8 21.1 61 7 60.15.6c-.1-.55-.3-.25-.25.3.8 5.85 2.05 19.2 3.65 24.9 2.45 8.75 5.3 10.3 5.35 10.35 2.15 4.3 2.2 4.3 2.8 8.75.55 4.2-1.15 8.8-.6 13.05.7 5.1.7 9.1-3.55 12-2.45 1.65-10.1 5.8-14.65 1.8.05-.35.3-3.15.35-3.5.5-3.9-.75-8.2-1.1-12.05-.45-5.05.4-13.2-.15-18.2-.9-8.05-3.35-13-6.35-20.55-.15-.3-.25-.65-.4-.95v-.6c0-.25-.2-.4-.4-.4-2-4.95-4.2-9.8-6.65-14.55-.25-.5-1.05-.05-.75.45 2.55 4.9 5.25 10.2 7.3 15.35 0 12.25-2.1 24.3-1.1 36.55.25 3.35 2.1 6.05 3.65 9 .25.5.5.95.8 1.45-2.3 5-7.1 7.85-12.35 8.75-4.45.8-14.6 1.45-18.75-1.25 4.4-3.05 11.2-8.85 12.9-14 2.2-6.65-.15-12.55-1.8-19.15-2.85-11.75-7.7-23.2-8.5-35.35-.05-.55-.15-.5-.1.05.65 9.9 3.8 19.85 6.8 29.25 2.25 7.1 4.4 15.15 3.65 22.7-.7 6.8-8.05 12.1-13.55 15.85h-.05c-.1.1-.25.15-.35.2-.05 0-.05.05-.1.05-4.1 2.6-8.35 4.85-12.85 6.7-.1.05-1.55.45-1.6.5-1.1.5-1.7 1.15-1.35 2.35.55 1.85 4.3 2.6 6 2.75 2.9.25 3.45-1.45 6.85-.5zM3.2 78.5c.1-.05.15-.1.2-.15 4.45-1.85 8.7-4.05 12.75-6.65 4.25 3.05 10.65 2 15.45 1.3 5.65-.85 14.25-3.1 16.95-8.35.55 1.05 1.05 2.1 1.45 3.2 1 2.9.2 7.5-3.55 7.8-.2 0-.3.15-.4.25-3.65.8-10.6-.2-14.35.25-3.15.35-5.3 2.05-7.75 3.6-.1 0-.15.05-.25.1-.2.15-.4.3-.6.4-.4.25-.75.45-1.2.65-3 1.35-6.2.65-9.5.85-1.6.1-3.15.45-4.75.55-1.05.05-2.2.05-3.25-.3-1-.35-3.55-2.6-1.2-3.5z"/>
        <path fill="#000" d="M58.15 82.65c2.4-2.9 5.7-4.55 9.45-4.8.55-.05.55-.9 0-.9-3.95.2-7.55 2-10.05 5.05-.35.45.25 1.1.6.65z"/>
        <path fill="#F6F4F4" d="M8.4 82.65c3.35-1.15 5.45-.3 6.2-.3 3.1 0 5.15-.15 8.15-1.5.4-.2 5.85-4.35 8.95-4.7 3.75-.4 10.1.95 13.75.15.05-.15 1.3-.3 1.5-.3 3.75-.3 4.05-5.25 3.05-8.15-.4-1.1-.9-2.15-1.45-3.2-2.65 5.25-10.65 7.5-16.3 8.35-4.8.7-12.35 1.7-16.6-1.35-4.05 2.6-6.65 3.95-11.1 5.8-.05.05-3 1.15-3.1 1.2-2.35.9 0 3.4 2.95 4 1.05.2 3 .35 4 0zM54.35 89.5c.1 0 .25.1.3.15 5.05-.45 3.1-1.5 10.65-4.45 3.85-1.5 6.1-4.5 8.15-8.15 2.45-5.6 1.35-6.5.75-12.75-.3-3.35 0-10.7.9-13.95.5-1.75.7-3.5.6-5.35-.15-2.3-1-4.25-2.85-5.75-.85-.7-1.75-1.2-2.65-1.8 2.35 4.8 2.65 7.95 1.95 13.2-.4 2.95-.6 4 0 9.05.25 2-.25 5.35-1.35 7.1-2.35 3.8-6.65 6.5-11.3 7.3-2.4.4-6.05-.05-7.35-1.7-.55 2.35-.95 5.35-.9 7.85.05 1.45.3 9.55 3.1 9.25z"/>
        <path fill="#000" d="M39.95 66.7c3.75-.9 3.25-5.3 2.45-8.1-.15-.55 1.9 6.7-2.65 7.25-.6.1-.35 1 .2.85zM68.7 44.7c3-4.4-1.75-7.8-3.7-11.55-.25-.5 2.5 4.7 3.15 6 1.4 2.75 1.15 3.05-.25 5.1-.3.45.45.9.8.45zM53 86.55c1.55-1.2 3.5-1.55 5.35-.95.25.05.35-.3.1-.35-1.95-.6-4-.25-5.65 1-.2.15 0 .45.2.3z"/>
    </g>
</svg>
