<svg xmlns="http://www.w3.org/2000/svg" width="86" height="90" viewBox="0 0 86 90">
    <g fill="none" fill-rule="nonzero">
        <path fill="#000" d="M25.293 78.362c3.207-2.224 6.673-2.638 10.448-2.948 4.656-.31 10.707-.724 12.621-5.845.828-2.224.414-4.603-.155-6.828-.414-1.655-.88-3.258-1.345-4.862.052-.051.104-.103.104-.155.206-.31-.052-.569-.31-.62-.518-1.966-.984-3.983-1.19-6.104-1.604-15.517 3.982-31.138 1.293-46.552 2.69 5.793 5.43 11.586 7.913 17.483 1.397 3.414 2.638 6.828 3.57 10.397 1.396 5.327 1.448 10.5 1.292 15.93-.103 4.087.104 7.811.983 11.794.931 4.345 2.586 9.414-.103 13.396-.776 1.19-3.104 2.897-3.155 2.845-.414-.259-1.242 1.138-1.604 1.345-1.138.672-2.896 1.241-3.569 2.483-1.19 2.172 1.552 4.603 3 5.845 5.12 4.396 12.31 4.706 18.362 1.862.104 0 1.966-1.552 2.018-1.552.103-.052 2.74-1.862 3.155-4.655.569-3.776-.362-7.759-.466-11.535-.155-4.862 2.276-7.552 4.81-11.38 2.07-3.103 3.621-7.292 2.69-11.068-1.034-4.19-5.43-5.845-8.172-8.793-2.897-3.155-4.862-6.57-5.017-10.914-.363-9.207.155-18.31-1.242-27.465-.103-.518-.983-.31-.827.206 2.74 10.81.879 18.104 1.24 27.207.104 2.638.725 5.121 2.07 7.397.155.31.362.569.569.88-.052.103 1.965 2.327 2.069 2.482 4.862 6.414-4.707 15-15.931 14.328-.155-3.363.155-6.725.155-10.035-.052-7.552-2.741-14.793-5.638-21.724-2.793-6.673-5.483-12.983-8.483-19.552-.051-.155-.155-.207-.31-.207l-.31-1.086c-.156-.517-.983-.31-.828.207 3.724 13.397 1.5 24.62-.414 37.759-.827 5.586-.103 13.965 1.242 19.344-4.656 5.431-12.414 1.5-17.845-1.603 2.017-3.414 3.258-7.345 2.43-11.741-3.516-17.742-5.275-25.81-5.482-34.5-.259-10.966-.465-3.673-.569-3.156-1.396 7.966 3.828 27.725 4.966 35.483.62 4.086.672 8.483-1.138 12.31-.259.518-.518.983-.828 1.5-.155.052-.207.207-.259.363-1.81 2.741-4.5 4.965-6.982 7.034-3.259 2.69-3.414 3.362-7.345 4.707-2.638.88-7.604 3.31-9.259 5.586C.88 77.172-1.397 81.828 1.655 86.38c3.155 4.707 11.07.414 15.104-1.913 3.051-1.81 5.638-4.087 8.534-6.104zm52.448-38.12c1.966 2.275 2.173 1.706 4.552 3.724C87 48 84.88 54.62 81.776 59.017c-1.862 2.638-4.086 5.07-4.397 8.431-.362 3.621.414 7.345.57 11.018.051 1.758.103 3.775-.777 5.379-.775 1.448-2.327 2.586-3.517 3.776-3.414 1.707-7.241 2.12-10.965 1.293-1.707-.414-3.362-1.035-4.81-1.914-.828-.517-1.656-1.086-2.38-1.707-1.345-1.19-1.603-1.552-1.655-3.517-.052-2.224.052-1.914 1.603-2.793a27.852 27.852 0 0 0 2.07-1.293l.051-.052c2.38 1.552 4.448 3.414 6.207 5.638.362.414.93-.155.62-.62-1.706-2.173-3.775-4.035-6.051-5.535.88-.673 1.758-1.449 2.43-2.328 1.76-2.224 2.277-4.81 2.018-7.603-.31-3.466-1.345-6.776-1.914-10.19a29.486 29.486 0 0 1-.31-3c11.172.052 20.017-8.483 17.172-13.759zM5.897 87.31c-5.38-.103-6.518-4.965-4.5-9.258 1.706-3.621 4.086-6.88 7.913-8.328 2.483-.93 5.07-1.448 7.397-2.845 2.638-1.551 5.017-3.724 7.241-5.793a23.133 23.133 0 0 0 3.621-4.293c5.741 2.431 13.5 7.035 18.569 1.862.155.517.31 1.086.465 1.604 1.087 3.517 2.535 7.707-.206 10.862-2.173 2.482-5.638 3-8.742 3.258-5.069.414-9.465.621-13.655 3.776-5.017 3.88-11.328 9.31-18.103 9.155z"/>
        <path fill="#F6F4F4" d="M62.328 68.638c.258 2.793.103 3.776-1.656 6-.672.88-1.551 1.655-2.43 2.328 2.327 1.551 4.344 3.362 6.051 5.534.362.414-4.448-3.466-6.827-5.017l-.052.051c-.673.466-1.345.88-2.07 1.294-1.55.879-2.223 1.19-2.792 2.327-.88 1.759 2.069 4.293 3.258 4.552.931.207 1.138.93 2.018 1.448 1.5.88 3 1.293 4.706 1.655 3.725.88 7.552.414 10.966-1.293 1.19-1.19 2.741-2.276 3.517-3.776.88-1.603.88-3.62.776-5.379-.155-3.62-.672-6.88-.31-10.5.31-3.31 3.414-7.345 5.276-9.983 3.103-4.345 4.138-9.879-.621-13.965-2.38-2.017-2.276-1.293-4.241-3.57 2.017 5.587-7.552 13.966-17.587 13.45-.569.361-.155 3.775.156 4.965 1.137 3.362 1.551 6.413 1.862 9.879zM39.052 74.793c3.103-.259 5.845-1.19 8.017-3.724 2.741-3.155.62-7.241-.466-10.759-.155-.517-.31-1.086-.465-1.603-5.069 5.172-12.828.569-18.569-1.862-.983 1.5-2.172 2.896-3.62 4.293-2.225 2.069-4.604 4.241-7.242 5.793-2.328 1.345-4.914 1.862-7.397 2.845-3.827 1.448-6.207 4.707-7.913 8.327-2.018 4.294-.414 9.621 4.965 9.725 6.776.155 13.759-6.156 18.828-9.983 4.241-3.259 8.793-2.638 13.862-3.052z"/>
        <path fill="#000" d="M39.052 61.448c2.534-1.034 3.93-3.982 2.948-6.569-.207-.517.724 4.81-3.155 5.742-.517.155-.31 1.034.207.827zM74.638 45.259c3.052-2.845 1.034-4.966-2.12-8.431-.363-.414 6 5.741 1.5 7.81-.518.207.206.983.62.62z"/>
    </g>
</svg>
