<svg xmlns="http://www.w3.org/2000/svg" width="68" height="90" viewBox="0 0 68 90">
    <g fill="none" fill-rule="nonzero">
        <path fill="#F6F4F4" d="M26.319 51.227c1.897-3.649 2.919-7.2 4.913-10.8 4.573-8.27 11.238-15.178 17.611-21.99-6.227-2.48-11.53-7.54-15.178-13.086-3.065 5.206-4.524 11.19-6.81 16.881-1.023 2.482-2.19 7.395-4.769 8.709-1.118.583-1.459.34-2.675.389-2.335.097-5.157-1.362-7.297.34-4.038 3.308-2.968 8.952-3.211 14.303-.146 3.795-2.627 7.005-4.865 9.973C.68 60.47 0 64.849 1.168 69.08c.632 2.335 2.87 2.578 4.475 4.281 1.314 1.411 2.725 2.676 4.768 2.53 1.021-1.703.584-4.233 1.216-6.081 1.022-3.016 2.919-5.497 5.108-7.784 3.26-3.357 7.2-6.276 9.584-10.8zm-18.39 18.73c-1.507-1.654-3.6-6.081-3.356-5.692 1.119 1.849 2.384 3.6 3.892 5.157.292.34-.243.875-.535.535z"/>
        <path fill="#000" d="M17.903 61.93c2.87-2.92 5.789-5.887 8.027-9.34 2.238-3.455 3.6-7.444 5.546-11.093 2.092-3.892 4.524-7.54 7.248-10.994-.048 6.47.973 12.892.487 19.41-.243 3.406-1.022 6.373-2.53 9.438-.973 1.995-1.897 3.94-1.8 6.227.049 1.8.633 3.746 1.897 5.108 1.752 1.85 4.233 1.46 6.276 2.725 3.405 2.14 3.357 6.567 5.497 9.535.779 1.265 2.092 1.751 3.406 2.53 2.238 1.41 4.038 3.989 6.762 4.427 4.719.827 6.86-5.206 8.416-8.514.097-.194 0-.34-.097-.438.243-1.605.243-3.113-.876-4.524-1.703-2.238-4.524-3.308-6.81-4.816-3.114-2.043-4.963-4.622-6.763-7.784-.827-1.46-2.043-2.724-2.675-4.281-.779-1.897-.536-4.038-.195-5.984 1.265-7.589 3.99-15.08 6.13-22.476C58.184 22.914 60.616 14.79 63 6.616c.632-.535 1.265-1.07 1.849-1.605.389-.292-.146-.827-.535-.535-5.109 4.33-9.925 8.805-14.838 13.475C43.15 15.52 37.119 11.724 33.81 5.205c1.07-1.702 2.286-3.794 4.038-4.864.389-.244-.146-.438-.487-.098-1.508 1.46-2.773 3.065-3.892 4.768-.243 0-.535.243-.34.535-2.238 3.697-3.746 7.784-5.206 11.968-1.265 3.6-2.48 7.345-4.524 10.654-1.216 1.994-2.578 2.627-4.816 2.87-1.606.194-3.114-.584-4.72-.34-7.345 1.167-5.01 11.529-6.178 16.297C6.324 53.514.341 57.745.195 64.8c-.05 1.362.097 2.773.583 4.038.681 1.751 2.092 2.724 3.357 4.038 1.8 1.8 3.065 3.648 5.79 3.502.145.098.389.146.534-.097.973-1.46 1.07-3.26 1.46-4.913 1.022-3.795 3.26-6.714 5.984-9.438zm37.265-31.087c-2.141 7.395-4.865 14.887-6.13 22.476-.39 2.432-.681 4.962.535 7.2.73 1.265 1.703 2.384 2.384 3.649.73 1.264 1.362 2.578 2.286 3.746 1.8 2.383 4.233 4.037 6.762 5.545 1.46.876 3.017 1.752 4.233 3.017 1.46 1.605 1.313 3.21.924 5.254v.048c-1.605 3.552-3.94 9.195-8.66 6.957-1.459-.68-2.578-1.946-3.843-2.967-1.313-1.022-3.502-1.752-4.427-3.211v-.049c-.048-.049-.048-.097-.097-.146l-.146-.292a.672.672 0 0 0-.146-.194c-1.46-2.481-1.848-5.498-3.794-7.784-1.217-1.46-2.627-1.946-4.427-2.384-3.746-.924-5.498-4.33-4.817-8.076.487-2.432 2.044-4.475 2.92-6.762.924-2.335 1.167-4.962 1.361-7.443.39-6.665-.68-13.281-.535-19.946 2.627-3.308 5.546-6.422 8.514-9.39 2.821 1.314 6.567 2.287 9.73 1.8-.925 3.017-1.752 5.985-2.627 8.952zm7.346-23.692c-1.363 4.573-2.822 9.438-4.136 14.011-4.962 1.07-7.589-.146-9.778-1.605 4.281-4.233 9.34-8.514 13.914-12.406zM10.41 75.891c-2.043.147-3.454-1.118-4.768-2.529-1.605-1.703-3.6-2.48-4.475-4.767-1.46-3.65-.536-8.125 2.87-12.6 2.238-2.968 4.719-6.179 4.865-9.973.194-5.352-.876-10.849 3.21-14.157 2.092-1.703 5.109-.049 7.444-.146 1.265-.049 1.41-.195 2.53-.73 2.578-1.265 3.502-5.838 4.524-8.319 2.335-5.692 3.746-12.016 6.957-16.784 3.648 5.546 9.097 10.12 15.324 12.6-7.006 7.395-13.135 13.622-17.66 21.892-1.994 3.6-3.259 8.125-5.4 11.627-2.432 3.99-5.837 6.665-9.048 9.973-2.19 2.238-4.087 4.768-5.108 7.784-.633 1.897-.244 4.427-1.265 6.13z"/>
        <path fill="#000" d="M4.573 64.265c-.243-.39 1.849 4.038 3.357 5.692.34.34.875-.195.535-.535a30.517 30.517 0 0 1-3.892-5.157zM57.065 83.724a9.043 9.043 0 0 0 6.032-4.232c.244-.39-.389-.778-.632-.39-1.265 2.093-3.21 3.455-5.595 3.893-.486.097-.292.827.195.73z"/>
        <path fill="#F6F4F4" d="M48.016 20.14c-3.016 2.968-6.13 6.617-8.805 9.925-.146 6.665.778 12.697.389 19.362-.146 2.481-.049 5.157-.924 7.492-.876 2.286-2.822 4.622-3.26 7.054-.73 3.746 1.12 6.908 4.865 7.832 1.849.438 3.551.876 4.768 2.336 1.897 2.286 3.405 8.075 3.454 8.075.924 1.46 3.892 2.53 5.205 3.552 1.265.973 2.627 2.87 4.087 3.55 4.719 2.239 6.81-3.988 8.416-7.54v-.048c.34-2.044.973-3.844-.487-5.449-1.167-1.265-3.162-1.946-4.67-2.822-2.53-1.508-3.94-2.773-5.79-5.108-.923-1.167-1.994-2.675-2.723-3.989-.73-1.265-2.238-2.578-2.92-3.843-1.264-2.238-.437-4.914-.048-7.346 1.265-7.59 3.94-14.984 6.081-22.33.876-2.967 1.605-5.984 2.481-8.951-3.21.486-7.297-.438-10.119-1.751zm8.854 62.903c2.384-.486 4.33-1.848 5.595-3.892.243-.389.535 2.238-5.4 4.622-.487.146-.681-.681-.195-.73z"/>
        <path fill="#000" d="M22.816 34.735c-2.238.535-4.816 1.12-5.789 3.454-.195.438.535.633.73.195.827-1.995 5.497-3.746 5.06-3.649zM40.33 55.605c-.487 1.995-.925 3.99-.049 5.936.195.437.827.048.633-.39-.73-1.702-.438-5.983-.584-5.546z"/>
    </g>
</svg>
